<svg width="1234" height="164" viewBox="0 0 1234 164" fill="none" xmlns="http://www.w3.org/2000/svg">
<g filter="url(#filter0_d_339_225)">
<rect width="1234" height="159" rx="45" fill="#F3F3F3"/>
<rect x="0.5" y="0.5" width="1233" height="158" rx="44.5" stroke="#191A23"/>
<g clip-path="url(#clip0_339_225)">
<path d="M79.32 100.84C74.44 100.84 70.54 99.46 67.62 96.7C64.74 93.9 63.3 89.7 63.3 84.1V73.9C63.3 68.42 64.74 64.26 67.62 61.42C70.54 58.58 74.44 57.16 79.32 57.16C84.24 57.16 88.14 58.58 91.02 61.42C93.94 64.26 95.4 68.42 95.4 73.9V84.1C95.4 89.7 93.94 93.9 91.02 96.7C88.14 99.46 84.24 100.84 79.32 100.84ZM79.32 95.2C82.64 95.2 85.1 94.26 86.7 92.38C88.3 90.46 89.1 87.78 89.1 84.34V73.54C89.1 70.1 88.24 67.46 86.52 65.62C84.8 63.74 82.4 62.8 79.32 62.8C76.2 62.8 73.8 63.76 72.12 65.68C70.44 67.56 69.6 70.18 69.6 73.54V84.34C69.6 87.86 70.4 90.56 72 92.44C73.64 94.28 76.08 95.2 79.32 95.2ZM121.652 100V91.42H100.412V84.1L116.492 58H127.952V85.84H135.032V91.42H127.952V100H121.652ZM106.532 85.84H121.652V61.96H120.692L106.532 85V85.84Z" fill="black"/>
<path d="M164.19 89.5V68.5H170.28L174.87 87.34H175.35L179.94 68.5H186.03V89.5H182.88V70.78H182.4L177.84 89.5H172.38L167.82 70.78H167.34V89.5H164.19ZM197.431 89.92C195.951 89.92 194.631 89.62 193.471 89.02C192.331 88.4 191.431 87.52 190.771 86.38C190.111 85.24 189.781 83.89 189.781 82.33V81.88C189.781 80.32 190.111 78.98 190.771 77.86C191.431 76.72 192.331 75.84 193.471 75.22C194.631 74.6 195.951 74.29 197.431 74.29C198.911 74.29 200.231 74.6 201.391 75.22C202.551 75.84 203.461 76.72 204.121 77.86C204.781 78.98 205.111 80.32 205.111 81.88V82.33C205.111 83.89 204.781 85.24 204.121 86.38C203.461 87.52 202.551 88.4 201.391 89.02C200.231 89.62 198.911 89.92 197.431 89.92ZM197.431 87.16C198.791 87.16 199.891 86.73 200.731 85.87C201.591 84.99 202.021 83.78 202.021 82.24V81.97C202.021 80.43 201.601 79.23 200.761 78.37C199.921 77.49 198.811 77.05 197.431 77.05C196.091 77.05 194.991 77.49 194.131 78.37C193.291 79.23 192.871 80.43 192.871 81.97V82.24C192.871 83.78 193.291 84.99 194.131 85.87C194.991 86.73 196.091 87.16 197.431 87.16ZM208.958 89.5V74.71H211.988V76.93H212.468C212.748 76.33 213.248 75.77 213.968 75.25C214.688 74.73 215.758 74.47 217.178 74.47C218.298 74.47 219.288 74.72 220.148 75.22C221.028 75.72 221.718 76.43 222.218 77.35C222.718 78.25 222.968 79.34 222.968 80.62V89.5H219.878V80.86C219.878 79.58 219.558 78.64 218.918 78.04C218.278 77.42 217.398 77.11 216.278 77.11C214.998 77.11 213.968 77.53 213.188 78.37C212.428 79.21 212.048 80.43 212.048 82.03V89.5H208.958ZM227.415 89.5V74.71H230.505V89.5H227.415ZM228.975 72.7C228.375 72.7 227.865 72.51 227.445 72.13C227.045 71.73 226.845 71.22 226.845 70.6C226.845 69.98 227.045 69.48 227.445 69.1C227.865 68.7 228.375 68.5 228.975 68.5C229.595 68.5 230.105 68.7 230.505 69.1C230.905 69.48 231.105 69.98 231.105 70.6C231.105 71.22 230.905 71.73 230.505 72.13C230.105 72.51 229.595 72.7 228.975 72.7ZM240.641 89.5C239.741 89.5 239.021 89.23 238.481 88.69C237.961 88.15 237.701 87.43 237.701 86.53V77.32H233.621V74.71H237.701V69.82H240.791V74.71H245.201V77.32H240.791V85.99C240.791 86.59 241.071 86.89 241.631 86.89H244.721V89.5H240.641ZM255.233 89.92C253.753 89.92 252.433 89.62 251.273 89.02C250.133 88.4 249.233 87.52 248.573 86.38C247.913 85.24 247.583 83.89 247.583 82.33V81.88C247.583 80.32 247.913 78.98 248.573 77.86C249.233 76.72 250.133 75.84 251.273 75.22C252.433 74.6 253.753 74.29 255.233 74.29C256.713 74.29 258.033 74.6 259.193 75.22C260.353 75.84 261.263 76.72 261.923 77.86C262.583 78.98 262.913 80.32 262.913 81.88V82.33C262.913 83.89 262.583 85.24 261.923 86.38C261.263 87.52 260.353 88.4 259.193 89.02C258.033 89.62 256.713 89.92 255.233 89.92ZM255.233 87.16C256.593 87.16 257.693 86.73 258.533 85.87C259.393 84.99 259.823 83.78 259.823 82.24V81.97C259.823 80.43 259.403 79.23 258.563 78.37C257.723 77.49 256.613 77.05 255.233 77.05C253.893 77.05 252.793 77.49 251.933 78.37C251.093 79.23 250.673 80.43 250.673 81.97V82.24C250.673 83.78 251.093 84.99 251.933 85.87C252.793 86.73 253.893 87.16 255.233 87.16ZM266.76 89.5V74.71H269.79V76.45H270.27C270.51 75.83 270.89 75.38 271.41 75.1C271.95 74.8 272.61 74.65 273.39 74.65H275.16V77.44H273.27C272.27 77.44 271.45 77.72 270.81 78.28C270.17 78.82 269.85 79.66 269.85 80.8V89.5H266.76ZM278.362 89.5V74.71H281.452V89.5H278.362ZM279.922 72.7C279.322 72.7 278.812 72.51 278.392 72.13C277.992 71.73 277.792 71.22 277.792 70.6C277.792 69.98 277.992 69.48 278.392 69.1C278.812 68.7 279.322 68.5 279.922 68.5C280.542 68.5 281.052 68.7 281.452 69.1C281.852 69.48 282.052 69.98 282.052 70.6C282.052 71.22 281.852 71.73 281.452 72.13C281.052 72.51 280.542 72.7 279.922 72.7ZM286.038 89.5V74.71H289.068V76.93H289.548C289.828 76.33 290.328 75.77 291.048 75.25C291.768 74.73 292.838 74.47 294.258 74.47C295.378 74.47 296.368 74.72 297.228 75.22C298.108 75.72 298.798 76.43 299.298 77.35C299.798 78.25 300.048 79.34 300.048 80.62V89.5H296.958V80.86C296.958 79.58 296.638 78.64 295.998 78.04C295.358 77.42 294.478 77.11 293.358 77.11C292.078 77.11 291.048 77.53 290.268 78.37C289.508 79.21 289.128 80.43 289.128 82.03V89.5H286.038ZM303.775 82.18V81.73C303.775 80.17 304.085 78.84 304.705 77.74C305.345 76.64 306.185 75.79 307.225 75.19C308.265 74.59 309.405 74.29 310.645 74.29C312.085 74.29 313.185 74.56 313.945 75.1C314.725 75.64 315.295 76.22 315.655 76.84H316.135V74.71H319.135V92.53C319.135 93.43 318.865 94.15 318.325 94.69C317.805 95.23 317.085 95.5 316.165 95.5H306.205V92.8H315.205C315.785 92.8 316.075 92.5 316.075 91.9V87.19H315.595C315.375 87.55 315.065 87.92 314.665 88.3C314.265 88.68 313.735 88.99 313.075 89.23C312.435 89.47 311.625 89.59 310.645 89.59C309.405 89.59 308.255 89.3 307.195 88.72C306.155 88.12 305.325 87.27 304.705 86.17C304.085 85.05 303.775 83.72 303.775 82.18ZM311.485 86.89C312.825 86.89 313.925 86.47 314.785 85.63C315.665 84.77 316.105 83.59 316.105 82.09V81.82C316.105 80.28 315.675 79.1 314.815 78.28C313.955 77.44 312.845 77.02 311.485 77.02C310.165 77.02 309.065 77.44 308.185 78.28C307.325 79.1 306.895 80.28 306.895 81.82V82.09C306.895 83.59 307.325 84.77 308.185 85.63C309.065 86.47 310.165 86.89 311.485 86.89ZM335.921 89.92C334.861 89.92 333.911 89.74 333.071 89.38C332.251 89.02 331.591 88.49 331.091 87.79C330.611 87.09 330.371 86.24 330.371 85.24C330.371 84.22 330.611 83.38 331.091 82.72C331.591 82.04 332.261 81.53 333.101 81.19C333.961 80.85 334.931 80.68 336.011 80.68H340.511V79.72C340.511 78.86 340.251 78.17 339.731 77.65C339.211 77.13 338.411 76.87 337.331 76.87C336.271 76.87 335.461 77.12 334.901 77.62C334.341 78.12 333.971 78.77 333.791 79.57L330.911 78.64C331.151 77.84 331.531 77.12 332.051 76.48C332.591 75.82 333.301 75.29 334.181 74.89C335.061 74.49 336.121 74.29 337.361 74.29C339.281 74.29 340.791 74.78 341.891 75.76C342.991 76.74 343.541 78.13 343.541 79.93V86.02C343.541 86.62 343.821 86.92 344.381 86.92H345.641V89.5H343.331C342.631 89.5 342.061 89.32 341.621 88.96C341.181 88.6 340.961 88.11 340.961 87.49V87.4H340.511C340.351 87.7 340.111 88.05 339.791 88.45C339.471 88.85 339.001 89.2 338.381 89.5C337.761 89.78 336.941 89.92 335.921 89.92ZM336.371 87.37C337.611 87.37 338.611 87.02 339.371 86.32C340.131 85.6 340.511 84.62 340.511 83.38V83.08H336.191C335.371 83.08 334.711 83.26 334.211 83.62C333.711 83.96 333.461 84.47 333.461 85.15C333.461 85.83 333.721 86.37 334.241 86.77C334.761 87.17 335.471 87.37 336.371 87.37ZM348.645 89.5V74.71H351.675V76.93H352.155C352.435 76.33 352.935 75.77 353.655 75.25C354.375 74.73 355.445 74.47 356.865 74.47C357.985 74.47 358.975 74.72 359.835 75.22C360.715 75.72 361.405 76.43 361.905 77.35C362.405 78.25 362.655 79.34 362.655 80.62V89.5H359.565V80.86C359.565 79.58 359.245 78.64 358.605 78.04C357.965 77.42 357.085 77.11 355.965 77.11C354.685 77.11 353.655 77.53 352.875 78.37C352.115 79.21 351.735 80.43 351.735 82.03V89.5H348.645ZM373.222 89.92C372.002 89.92 370.872 89.62 369.832 89.02C368.792 88.42 367.952 87.56 367.312 86.44C366.692 85.3 366.382 83.93 366.382 82.33V81.88C366.382 80.3 366.692 78.94 367.312 77.8C367.932 76.66 368.762 75.79 369.802 75.19C370.842 74.59 371.982 74.29 373.222 74.29C374.182 74.29 374.982 74.41 375.622 74.65C376.282 74.89 376.822 75.2 377.242 75.58C377.662 75.94 377.982 76.32 378.202 76.72H378.682V68.5H381.772V89.5H378.742V87.4H378.262C377.882 88.04 377.302 88.62 376.522 89.14C375.762 89.66 374.662 89.92 373.222 89.92ZM374.092 87.22C375.432 87.22 376.532 86.79 377.392 85.93C378.272 85.07 378.712 83.84 378.712 82.24V81.97C378.712 80.39 378.282 79.17 377.422 78.31C376.562 77.45 375.452 77.02 374.092 77.02C372.772 77.02 371.672 77.45 370.792 78.31C369.932 79.17 369.502 80.39 369.502 81.97V82.24C369.502 83.84 369.932 85.07 370.792 85.93C371.672 86.79 372.772 87.22 374.092 87.22ZM401.768 89.92C399.188 89.92 397.138 89.2 395.618 87.76C394.098 86.3 393.338 84.2 393.338 81.46V76.54C393.338 73.8 394.098 71.71 395.618 70.27C397.138 68.81 399.188 68.08 401.768 68.08C404.348 68.08 406.398 68.81 407.918 70.27C409.458 71.71 410.228 73.8 410.228 76.54V81.46C410.228 84.2 409.458 86.3 407.918 87.76C406.398 89.2 404.348 89.92 401.768 89.92ZM401.768 87.01C403.428 87.01 404.708 86.53 405.608 85.57C406.508 84.59 406.958 83.26 406.958 81.58V76.42C406.958 74.74 406.508 73.42 405.608 72.46C404.708 71.48 403.428 70.99 401.768 70.99C400.148 70.99 398.878 71.48 397.958 72.46C397.038 73.42 396.578 74.74 396.578 76.42V81.58C396.578 83.26 397.038 84.59 397.958 85.57C398.878 86.53 400.148 87.01 401.768 87.01ZM414.153 95.5V74.71H417.183V76.84H417.663C418.043 76.18 418.613 75.59 419.373 75.07C420.153 74.55 421.263 74.29 422.703 74.29C423.943 74.29 425.073 74.59 426.093 75.19C427.133 75.79 427.963 76.66 428.583 77.8C429.223 78.92 429.543 80.28 429.543 81.88V82.33C429.543 83.93 429.233 85.3 428.613 86.44C427.993 87.56 427.163 88.42 426.123 89.02C425.083 89.62 423.943 89.92 422.703 89.92C421.743 89.92 420.933 89.8 420.273 89.56C419.613 89.32 419.083 89.02 418.683 88.66C418.283 88.28 417.963 87.89 417.723 87.49H417.243V95.5H414.153ZM421.803 87.22C423.163 87.22 424.273 86.79 425.133 85.93C425.993 85.07 426.423 83.84 426.423 82.24V81.97C426.423 80.39 425.983 79.17 425.103 78.31C424.243 77.45 423.143 77.02 421.803 77.02C420.483 77.02 419.383 77.45 418.503 78.31C417.643 79.17 417.213 80.39 417.213 81.97V82.24C417.213 83.84 417.643 85.07 418.503 85.93C419.383 86.79 420.483 87.22 421.803 87.22ZM438.394 89.5C437.494 89.5 436.774 89.23 436.234 88.69C435.714 88.15 435.454 87.43 435.454 86.53V77.32H431.374V74.71H435.454V69.82H438.544V74.71H442.954V77.32H438.544V85.99C438.544 86.59 438.824 86.89 439.384 86.89H442.474V89.5H438.394ZM446.585 89.5V74.71H449.675V89.5H446.585ZM448.145 72.7C447.545 72.7 447.035 72.51 446.615 72.13C446.215 71.73 446.015 71.22 446.015 70.6C446.015 69.98 446.215 69.48 446.615 69.1C447.035 68.7 447.545 68.5 448.145 68.5C448.765 68.5 449.275 68.7 449.675 69.1C450.075 69.48 450.275 69.98 450.275 70.6C450.275 71.22 450.075 71.73 449.675 72.13C449.275 72.51 448.765 72.7 448.145 72.7ZM454.26 89.5V74.71H457.29V76.45H457.77C458.05 75.93 458.5 75.47 459.12 75.07C459.74 74.67 460.58 74.47 461.64 74.47C462.74 74.47 463.62 74.7 464.28 75.16C464.96 75.6 465.47 76.17 465.81 76.87H466.29C466.63 76.19 467.12 75.62 467.76 75.16C468.42 74.7 469.35 74.47 470.55 74.47C471.51 74.47 472.36 74.67 473.1 75.07C473.84 75.45 474.43 76.03 474.87 76.81C475.31 77.57 475.53 78.52 475.53 79.66V89.5H472.44V79.9C472.44 79 472.19 78.31 471.69 77.83C471.21 77.33 470.52 77.08 469.62 77.08C468.66 77.08 467.89 77.39 467.31 78.01C466.73 78.63 466.44 79.52 466.44 80.68V89.5H463.35V79.9C463.35 79 463.1 78.31 462.6 77.83C462.12 77.33 461.43 77.08 460.53 77.08C459.57 77.08 458.8 77.39 458.22 78.01C457.64 78.63 457.35 79.52 457.35 80.68V89.5H454.26ZM479.983 89.5V74.71H483.073V89.5H479.983ZM481.543 72.7C480.943 72.7 480.433 72.51 480.013 72.13C479.613 71.73 479.413 71.22 479.413 70.6C479.413 69.98 479.613 69.48 480.013 69.1C480.433 68.7 480.943 68.5 481.543 68.5C482.163 68.5 482.673 68.7 483.073 69.1C483.473 69.48 483.673 69.98 483.673 70.6C483.673 71.22 483.473 71.73 483.073 72.13C482.673 72.51 482.163 72.7 481.543 72.7ZM487.059 89.5V85.72L495.789 77.74V77.32H487.359V74.71H499.149V78.52L490.389 86.5V86.89H499.389V89.5H487.059ZM507.776 89.92C506.716 89.92 505.766 89.74 504.926 89.38C504.106 89.02 503.446 88.49 502.946 87.79C502.466 87.09 502.226 86.24 502.226 85.24C502.226 84.22 502.466 83.38 502.946 82.72C503.446 82.04 504.116 81.53 504.956 81.19C505.816 80.85 506.786 80.68 507.866 80.68H512.366V79.72C512.366 78.86 512.106 78.17 511.586 77.65C511.066 77.13 510.266 76.87 509.186 76.87C508.126 76.87 507.316 77.12 506.756 77.62C506.196 78.12 505.826 78.77 505.646 79.57L502.766 78.64C503.006 77.84 503.386 77.12 503.906 76.48C504.446 75.82 505.156 75.29 506.036 74.89C506.916 74.49 507.976 74.29 509.216 74.29C511.136 74.29 512.646 74.78 513.746 75.76C514.846 76.74 515.396 78.13 515.396 79.93V86.02C515.396 86.62 515.676 86.92 516.236 86.92H517.496V89.5H515.186C514.486 89.5 513.916 89.32 513.476 88.96C513.036 88.6 512.816 88.11 512.816 87.49V87.4H512.366C512.206 87.7 511.966 88.05 511.646 88.45C511.326 88.85 510.856 89.2 510.236 89.5C509.616 89.78 508.796 89.92 507.776 89.92ZM508.226 87.37C509.466 87.37 510.466 87.02 511.226 86.32C511.986 85.6 512.366 84.62 512.366 83.38V83.08H508.046C507.226 83.08 506.566 83.26 506.066 83.62C505.566 83.96 505.316 84.47 505.316 85.15C505.316 85.83 505.576 86.37 506.096 86.77C506.616 87.17 507.326 87.37 508.226 87.37ZM525.025 89.5C524.125 89.5 523.405 89.23 522.865 88.69C522.345 88.15 522.085 87.43 522.085 86.53V77.32H518.005V74.71H522.085V69.82H525.175V74.71H529.585V77.32H525.175V85.99C525.175 86.59 525.455 86.89 526.015 86.89H529.105V89.5H525.025ZM533.216 89.5V74.71H536.306V89.5H533.216ZM534.776 72.7C534.176 72.7 533.666 72.51 533.246 72.13C532.846 71.73 532.646 71.22 532.646 70.6C532.646 69.98 532.846 69.48 533.246 69.1C533.666 68.7 534.176 68.5 534.776 68.5C535.396 68.5 535.906 68.7 536.306 69.1C536.706 69.48 536.906 69.98 536.906 70.6C536.906 71.22 536.706 71.73 536.306 72.13C535.906 72.51 535.396 72.7 534.776 72.7ZM547.821 89.92C546.341 89.92 545.021 89.62 543.861 89.02C542.721 88.4 541.821 87.52 541.161 86.38C540.501 85.24 540.171 83.89 540.171 82.33V81.88C540.171 80.32 540.501 78.98 541.161 77.86C541.821 76.72 542.721 75.84 543.861 75.22C545.021 74.6 546.341 74.29 547.821 74.29C549.301 74.29 550.621 74.6 551.781 75.22C552.941 75.84 553.851 76.72 554.511 77.86C555.171 78.98 555.501 80.32 555.501 81.88V82.33C555.501 83.89 555.171 85.24 554.511 86.38C553.851 87.52 552.941 88.4 551.781 89.02C550.621 89.62 549.301 89.92 547.821 89.92ZM547.821 87.16C549.181 87.16 550.281 86.73 551.121 85.87C551.981 84.99 552.411 83.78 552.411 82.24V81.97C552.411 80.43 551.991 79.23 551.151 78.37C550.311 77.49 549.201 77.05 547.821 77.05C546.481 77.05 545.381 77.49 544.521 78.37C543.681 79.23 543.261 80.43 543.261 81.97V82.24C543.261 83.78 543.681 84.99 544.521 85.87C545.381 86.73 546.481 87.16 547.821 87.16ZM559.348 89.5V74.71H562.378V76.93H562.858C563.138 76.33 563.638 75.77 564.358 75.25C565.078 74.73 566.148 74.47 567.568 74.47C568.688 74.47 569.678 74.72 570.538 75.22C571.418 75.72 572.108 76.43 572.608 77.35C573.108 78.25 573.358 79.34 573.358 80.62V89.5H570.268V80.86C570.268 79.58 569.948 78.64 569.308 78.04C568.668 77.42 567.788 77.11 566.668 77.11C565.388 77.11 564.358 77.53 563.578 78.37C562.818 79.21 562.438 80.43 562.438 82.03V89.5H559.348Z" fill="black"/>
<circle cx="1148" cy="79.5" r="28.5" fill="#F3F3F3" stroke="#191A23"/>
<path d="M1144.6 91.58V81.86H1135V76.22H1144.6V66.5H1150.48V76.22H1160.08V81.86H1150.48V91.58H1144.6Z" fill="#191A23"/>
</g>
</g>
<defs>
<filter id="filter0_d_339_225" x="0" y="0" width="1234" height="164" filterUnits="userSpaceOnUse" color-interpolation-filters="sRGB">
<feFlood flood-opacity="0" result="BackgroundImageFix"/>
<feColorMatrix in="SourceAlpha" type="matrix" values="0 0 0 0 0 0 0 0 0 0 0 0 0 0 0 0 0 0 127 0" result="hardAlpha"/>
<feOffset dy="5"/>
<feComposite in2="hardAlpha" operator="out"/>
<feColorMatrix type="matrix" values="0 0 0 0 0.0980392 0 0 0 0 0.101961 0 0 0 0 0.137255 0 0 0 1 0"/>
<feBlend mode="normal" in2="BackgroundImageFix" result="effect1_dropShadow_339_225"/>
<feBlend mode="normal" in="SourceGraphic" in2="effect1_dropShadow_339_225" result="shape"/>
</filter>
<clipPath id="clip0_339_225">
<rect width="1117" height="77" fill="white" transform="translate(60 41)"/>
</clipPath>
</defs>
</svg>
