<svg width="1234" height="164" viewBox="0 0 1234 164" fill="none" xmlns="http://www.w3.org/2000/svg">
<g filter="url(#filter0_d_339_217)">
<rect width="1234" height="159" rx="45" fill="#F3F3F3"/>
<rect x="0.5" y="0.5" width="1233" height="158" rx="44.5" stroke="#191A23"/>
<g clip-path="url(#clip0_339_217)">
<path d="M79.32 100.84C74.44 100.84 70.54 99.46 67.62 96.7C64.74 93.9 63.3 89.7 63.3 84.1V73.9C63.3 68.42 64.74 64.26 67.62 61.42C70.54 58.58 74.44 57.16 79.32 57.16C84.24 57.16 88.14 58.58 91.02 61.42C93.94 64.26 95.4 68.42 95.4 73.9V84.1C95.4 89.7 93.94 93.9 91.02 96.7C88.14 99.46 84.24 100.84 79.32 100.84ZM79.32 95.2C82.64 95.2 85.1 94.26 86.7 92.38C88.3 90.46 89.1 87.78 89.1 84.34V73.54C89.1 70.1 88.24 67.46 86.52 65.62C84.8 63.74 82.4 62.8 79.32 62.8C76.2 62.8 73.8 63.76 72.12 65.68C70.44 67.56 69.6 70.18 69.6 73.54V84.34C69.6 87.86 70.4 90.56 72 92.44C73.64 94.28 76.08 95.2 79.32 95.2ZM116.912 100.84C113.832 100.84 111.092 100.28 108.692 99.16C106.292 98.04 104.412 96.42 103.052 94.3C101.732 92.18 101.072 89.66 101.072 86.74V85.66H107.372V86.62C107.372 89.26 108.232 91.36 109.952 92.92C111.712 94.44 114.032 95.2 116.912 95.2C119.792 95.2 122.032 94.48 123.632 93.04C125.232 91.6 126.032 89.78 126.032 87.58V87.04C126.032 85.48 125.652 84.22 124.892 83.26C124.132 82.3 123.112 81.6 121.832 81.16C120.552 80.68 119.112 80.44 117.512 80.44H109.892V73.18L124.652 64.48V63.64H102.092V58H131.492V66.52L117.392 74.92V75.76H119.972C122.092 75.76 124.092 76.16 125.972 76.96C127.852 77.76 129.372 78.98 130.532 80.62C131.732 82.26 132.332 84.34 132.332 86.86V87.58C132.332 90.26 131.692 92.6 130.412 94.6C129.132 96.56 127.332 98.1 125.012 99.22C122.692 100.3 119.992 100.84 116.912 100.84Z" fill="black"/>
<path d="M163.19 89.5V68.5H166.43V89.5H163.19ZM170.897 89.5V74.71H173.927V76.45H174.407C174.687 75.93 175.137 75.47 175.757 75.07C176.377 74.67 177.217 74.47 178.277 74.47C179.377 74.47 180.257 74.7 180.917 75.16C181.597 75.6 182.107 76.17 182.447 76.87H182.927C183.267 76.19 183.757 75.62 184.397 75.16C185.057 74.7 185.987 74.47 187.187 74.47C188.147 74.47 188.997 74.67 189.737 75.07C190.477 75.45 191.067 76.03 191.507 76.81C191.947 77.57 192.167 78.52 192.167 79.66V89.5H189.077V79.9C189.077 79 188.827 78.31 188.327 77.83C187.847 77.33 187.157 77.08 186.257 77.08C185.297 77.08 184.527 77.39 183.947 78.01C183.367 78.63 183.077 79.52 183.077 80.68V89.5H179.987V79.9C179.987 79 179.737 78.31 179.237 77.83C178.757 77.33 178.067 77.08 177.167 77.08C176.207 77.08 175.437 77.39 174.857 78.01C174.277 78.63 173.987 79.52 173.987 80.68V89.5H170.897ZM196.62 95.5V74.71H199.65V76.84H200.13C200.51 76.18 201.08 75.59 201.84 75.07C202.62 74.55 203.73 74.29 205.17 74.29C206.41 74.29 207.54 74.59 208.56 75.19C209.6 75.79 210.43 76.66 211.05 77.8C211.69 78.92 212.01 80.28 212.01 81.88V82.33C212.01 83.93 211.7 85.3 211.08 86.44C210.46 87.56 209.63 88.42 208.59 89.02C207.55 89.62 206.41 89.92 205.17 89.92C204.21 89.92 203.4 89.8 202.74 89.56C202.08 89.32 201.55 89.02 201.15 88.66C200.75 88.28 200.43 87.89 200.19 87.49H199.71V95.5H196.62ZM204.27 87.22C205.63 87.22 206.74 86.79 207.6 85.93C208.46 85.07 208.89 83.84 208.89 82.24V81.97C208.89 80.39 208.45 79.17 207.57 78.31C206.71 77.45 205.61 77.02 204.27 77.02C202.95 77.02 201.85 77.45 200.97 78.31C200.11 79.17 199.68 80.39 199.68 81.97V82.24C199.68 83.84 200.11 85.07 200.97 85.93C201.85 86.79 202.95 87.22 204.27 87.22ZM215.839 89.5V68.5H218.929V89.5H215.839ZM230.294 89.92C228.794 89.92 227.484 89.61 226.364 88.99C225.244 88.35 224.364 87.46 223.724 86.32C223.104 85.16 222.794 83.82 222.794 82.3V81.94C222.794 80.4 223.104 79.06 223.724 77.92C224.344 76.76 225.204 75.87 226.304 75.25C227.424 74.61 228.714 74.29 230.174 74.29C231.594 74.29 232.834 74.61 233.894 75.25C234.974 75.87 235.814 76.74 236.414 77.86C237.014 78.98 237.314 80.29 237.314 81.79V82.96H225.944C225.984 84.26 226.414 85.3 227.234 86.08C228.074 86.84 229.114 87.22 230.354 87.22C231.514 87.22 232.384 86.96 232.964 86.44C233.564 85.92 234.024 85.32 234.344 84.64L236.894 85.96C236.614 86.52 236.204 87.11 235.664 87.73C235.144 88.35 234.454 88.87 233.594 89.29C232.734 89.71 231.634 89.92 230.294 89.92ZM225.974 80.59H234.164C234.084 79.47 233.684 78.6 232.964 77.98C232.244 77.34 231.304 77.02 230.144 77.02C228.984 77.02 228.034 77.34 227.294 77.98C226.574 78.6 226.134 79.47 225.974 80.59ZM241.034 89.5V74.71H244.064V76.45H244.544C244.824 75.93 245.274 75.47 245.894 75.07C246.514 74.67 247.354 74.47 248.414 74.47C249.514 74.47 250.394 74.7 251.054 75.16C251.734 75.6 252.244 76.17 252.584 76.87H253.064C253.404 76.19 253.894 75.62 254.534 75.16C255.194 74.7 256.124 74.47 257.324 74.47C258.284 74.47 259.134 74.67 259.874 75.07C260.614 75.45 261.204 76.03 261.644 76.81C262.084 77.57 262.304 78.52 262.304 79.66V89.5H259.214V79.9C259.214 79 258.964 78.31 258.464 77.83C257.984 77.33 257.294 77.08 256.394 77.08C255.434 77.08 254.664 77.39 254.084 78.01C253.504 78.63 253.214 79.52 253.214 80.68V89.5H250.124V79.9C250.124 79 249.874 78.31 249.374 77.83C248.894 77.33 248.204 77.08 247.304 77.08C246.344 77.08 245.574 77.39 244.994 78.01C244.414 78.63 244.124 79.52 244.124 80.68V89.5H241.034ZM273.537 89.92C272.037 89.92 270.727 89.61 269.607 88.99C268.487 88.35 267.607 87.46 266.967 86.32C266.347 85.16 266.037 83.82 266.037 82.3V81.94C266.037 80.4 266.347 79.06 266.967 77.92C267.587 76.76 268.447 75.87 269.547 75.25C270.667 74.61 271.957 74.29 273.417 74.29C274.837 74.29 276.077 74.61 277.137 75.25C278.217 75.87 279.057 76.74 279.657 77.86C280.257 78.98 280.557 80.29 280.557 81.79V82.96H269.187C269.227 84.26 269.657 85.3 270.477 86.08C271.317 86.84 272.357 87.22 273.597 87.22C274.757 87.22 275.627 86.96 276.207 86.44C276.807 85.92 277.267 85.32 277.587 84.64L280.137 85.96C279.857 86.52 279.447 87.11 278.907 87.73C278.387 88.35 277.697 88.87 276.837 89.29C275.977 89.71 274.877 89.92 273.537 89.92ZM269.217 80.59H277.407C277.327 79.47 276.927 78.6 276.207 77.98C275.487 77.34 274.547 77.02 273.387 77.02C272.227 77.02 271.277 77.34 270.537 77.98C269.817 78.6 269.377 79.47 269.217 80.59ZM284.276 89.5V74.71H287.306V76.93H287.786C288.066 76.33 288.566 75.77 289.286 75.25C290.006 74.73 291.076 74.47 292.496 74.47C293.616 74.47 294.606 74.72 295.466 75.22C296.346 75.72 297.036 76.43 297.536 77.35C298.036 78.25 298.286 79.34 298.286 80.62V89.5H295.196V80.86C295.196 79.58 294.876 78.64 294.236 78.04C293.596 77.42 292.716 77.11 291.596 77.11C290.316 77.11 289.286 77.53 288.506 78.37C287.746 79.21 287.366 80.43 287.366 82.03V89.5H284.276ZM307.873 89.5C306.973 89.5 306.253 89.23 305.713 88.69C305.193 88.15 304.933 87.43 304.933 86.53V77.32H300.853V74.71H304.933V69.82H308.023V74.71H312.433V77.32H308.023V85.99C308.023 86.59 308.303 86.89 308.863 86.89H311.953V89.5H307.873ZM320.624 89.92C319.564 89.92 318.614 89.74 317.774 89.38C316.954 89.02 316.294 88.49 315.794 87.79C315.314 87.09 315.074 86.24 315.074 85.24C315.074 84.22 315.314 83.38 315.794 82.72C316.294 82.04 316.964 81.53 317.804 81.19C318.664 80.85 319.634 80.68 320.714 80.68H325.214V79.72C325.214 78.86 324.954 78.17 324.434 77.65C323.914 77.13 323.114 76.87 322.034 76.87C320.974 76.87 320.164 77.12 319.604 77.62C319.044 78.12 318.674 78.77 318.494 79.57L315.614 78.64C315.854 77.84 316.234 77.12 316.754 76.48C317.294 75.82 318.004 75.29 318.884 74.89C319.764 74.49 320.824 74.29 322.064 74.29C323.984 74.29 325.494 74.78 326.594 75.76C327.694 76.74 328.244 78.13 328.244 79.93V86.02C328.244 86.62 328.524 86.92 329.084 86.92H330.344V89.5H328.034C327.334 89.5 326.764 89.32 326.324 88.96C325.884 88.6 325.664 88.11 325.664 87.49V87.4H325.214C325.054 87.7 324.814 88.05 324.494 88.45C324.174 88.85 323.704 89.2 323.084 89.5C322.464 89.78 321.644 89.92 320.624 89.92ZM321.074 87.37C322.314 87.37 323.314 87.02 324.074 86.32C324.834 85.6 325.214 84.62 325.214 83.38V83.08H320.894C320.074 83.08 319.414 83.26 318.914 83.62C318.414 83.96 318.164 84.47 318.164 85.15C318.164 85.83 318.424 86.37 318.944 86.77C319.464 87.17 320.174 87.37 321.074 87.37ZM337.873 89.5C336.973 89.5 336.253 89.23 335.713 88.69C335.193 88.15 334.933 87.43 334.933 86.53V77.32H330.853V74.71H334.933V69.82H338.023V74.71H342.433V77.32H338.023V85.99C338.023 86.59 338.303 86.89 338.863 86.89H341.953V89.5H337.873ZM346.063 89.5V74.71H349.153V89.5H346.063ZM347.623 72.7C347.023 72.7 346.513 72.51 346.093 72.13C345.693 71.73 345.493 71.22 345.493 70.6C345.493 69.98 345.693 69.48 346.093 69.1C346.513 68.7 347.023 68.5 347.623 68.5C348.243 68.5 348.753 68.7 349.153 69.1C349.553 69.48 349.753 69.98 349.753 70.6C349.753 71.22 349.553 71.73 349.153 72.13C348.753 72.51 348.243 72.7 347.623 72.7ZM360.669 89.92C359.189 89.92 357.869 89.62 356.709 89.02C355.569 88.4 354.669 87.52 354.009 86.38C353.349 85.24 353.019 83.89 353.019 82.33V81.88C353.019 80.32 353.349 78.98 354.009 77.86C354.669 76.72 355.569 75.84 356.709 75.22C357.869 74.6 359.189 74.29 360.669 74.29C362.149 74.29 363.469 74.6 364.629 75.22C365.789 75.84 366.699 76.72 367.359 77.86C368.019 78.98 368.349 80.32 368.349 81.88V82.33C368.349 83.89 368.019 85.24 367.359 86.38C366.699 87.52 365.789 88.4 364.629 89.02C363.469 89.62 362.149 89.92 360.669 89.92ZM360.669 87.16C362.029 87.16 363.129 86.73 363.969 85.87C364.829 84.99 365.259 83.78 365.259 82.24V81.97C365.259 80.43 364.839 79.23 363.999 78.37C363.159 77.49 362.049 77.05 360.669 77.05C359.329 77.05 358.229 77.49 357.369 78.37C356.529 79.23 356.109 80.43 356.109 81.97V82.24C356.109 83.78 356.529 84.99 357.369 85.87C358.229 86.73 359.329 87.16 360.669 87.16ZM372.196 89.5V74.71H375.226V76.93H375.706C375.986 76.33 376.486 75.77 377.206 75.25C377.926 74.73 378.996 74.47 380.416 74.47C381.536 74.47 382.526 74.72 383.386 75.22C384.266 75.72 384.956 76.43 385.456 77.35C385.956 78.25 386.206 79.34 386.206 80.62V89.5H383.116V80.86C383.116 79.58 382.796 78.64 382.156 78.04C381.516 77.42 380.636 77.11 379.516 77.11C378.236 77.11 377.206 77.53 376.426 78.37C375.666 79.21 375.286 80.43 375.286 82.03V89.5H372.196Z" fill="black"/>
<circle cx="1148" cy="79.5" r="28.5" fill="#F3F3F3" stroke="#191A23"/>
<path d="M1144.6 91.58V81.86H1135V76.22H1144.6V66.5H1150.48V76.22H1160.08V81.86H1150.48V91.58H1144.6Z" fill="#191A23"/>
</g>
</g>
<defs>
<filter id="filter0_d_339_217" x="0" y="0" width="1234" height="164" filterUnits="userSpaceOnUse" color-interpolation-filters="sRGB">
<feFlood flood-opacity="0" result="BackgroundImageFix"/>
<feColorMatrix in="SourceAlpha" type="matrix" values="0 0 0 0 0 0 0 0 0 0 0 0 0 0 0 0 0 0 127 0" result="hardAlpha"/>
<feOffset dy="5"/>
<feComposite in2="hardAlpha" operator="out"/>
<feColorMatrix type="matrix" values="0 0 0 0 0.0980392 0 0 0 0 0.101961 0 0 0 0 0.137255 0 0 0 1 0"/>
<feBlend mode="normal" in2="BackgroundImageFix" result="effect1_dropShadow_339_217"/>
<feBlend mode="normal" in="SourceGraphic" in2="effect1_dropShadow_339_217" result="shape"/>
</filter>
<clipPath id="clip0_339_217">
<rect width="1117" height="77" fill="white" transform="translate(60 41)"/>
</clipPath>
</defs>
</svg>
