<svg width="1234" height="164" viewBox="0 0 1234 164" fill="none" xmlns="http://www.w3.org/2000/svg">
<g filter="url(#filter0_d_339_241)">
<rect width="1234" height="159" rx="45" fill="#F3F3F3"/>
<rect x="0.5" y="0.5" width="1233" height="158" rx="44.5" stroke="#191A23"/>
<g clip-path="url(#clip0_339_241)">
<path d="M79.32 100.84C74.44 100.84 70.54 99.46 67.62 96.7C64.74 93.9 63.3 89.7 63.3 84.1V73.9C63.3 68.42 64.74 64.26 67.62 61.42C70.54 58.58 74.44 57.16 79.32 57.16C84.24 57.16 88.14 58.58 91.02 61.42C93.94 64.26 95.4 68.42 95.4 73.9V84.1C95.4 89.7 93.94 93.9 91.02 96.7C88.14 99.46 84.24 100.84 79.32 100.84ZM79.32 95.2C82.64 95.2 85.1 94.26 86.7 92.38C88.3 90.46 89.1 87.78 89.1 84.34V73.54C89.1 70.1 88.24 67.46 86.52 65.62C84.8 63.74 82.4 62.8 79.32 62.8C76.2 62.8 73.8 63.76 72.12 65.68C70.44 67.56 69.6 70.18 69.6 73.54V84.34C69.6 87.86 70.4 90.56 72 92.44C73.64 94.28 76.08 95.2 79.32 95.2ZM117.332 100.84C114.292 100.84 111.612 100.26 109.292 99.1C106.972 97.9 105.172 96.24 103.892 94.12C102.612 92 101.972 89.54 101.972 86.74V72.22C101.972 68.94 102.612 66.18 103.892 63.94C105.212 61.7 107.052 60.02 109.412 58.9C111.772 57.74 114.512 57.16 117.632 57.16C120.712 57.16 123.372 57.7 125.612 58.78C127.852 59.82 129.572 61.32 130.772 63.28C131.972 65.2 132.572 67.46 132.572 70.06H126.212C126.212 67.98 125.512 66.26 124.112 64.9C122.752 63.5 120.592 62.8 117.632 62.8C114.632 62.8 112.312 63.6 110.672 65.2C109.072 66.76 108.272 68.94 108.272 71.74V76.78H109.232C109.912 75.82 111.012 74.9 112.532 74.02C114.092 73.14 116.292 72.7 119.132 72.7C121.612 72.7 123.892 73.24 125.972 74.32C128.052 75.4 129.712 76.94 130.952 78.94C132.232 80.94 132.872 83.36 132.872 86.2V86.92C132.872 89.68 132.212 92.12 130.892 94.24C129.572 96.32 127.732 97.94 125.372 99.1C123.052 100.26 120.372 100.84 117.332 100.84ZM117.392 95.2C120.192 95.2 122.412 94.44 124.052 92.92C125.732 91.4 126.572 89.36 126.572 86.8V86.32C126.572 84.6 126.192 83.12 125.432 81.88C124.672 80.6 123.592 79.6 122.192 78.88C120.832 78.16 119.232 77.8 117.392 77.8C115.592 77.8 113.992 78.16 112.592 78.88C111.232 79.6 110.172 80.6 109.412 81.88C108.652 83.12 108.272 84.6 108.272 86.32V86.8C108.272 89.36 109.092 91.4 110.732 92.92C112.412 94.44 114.632 95.2 117.392 95.2Z" fill="black"/>
<path d="M170.99 89.92C168.43 89.92 166.4 89.2 164.9 87.76C163.4 86.3 162.65 84.2 162.65 81.46V76.54C162.65 73.8 163.4 71.71 164.9 70.27C166.4 68.81 168.43 68.08 170.99 68.08C173.51 68.08 175.45 68.78 176.81 70.18C178.19 71.58 178.88 73.49 178.88 75.91V76.09H175.67V75.82C175.67 74.4 175.28 73.24 174.5 72.34C173.74 71.44 172.57 70.99 170.99 70.99C169.39 70.99 168.14 71.48 167.24 72.46C166.34 73.42 165.89 74.76 165.89 76.48V81.52C165.89 83.22 166.34 84.56 167.24 85.54C168.14 86.52 169.39 87.01 170.99 87.01C172.57 87.01 173.74 86.56 174.5 85.66C175.28 84.74 175.67 83.58 175.67 82.18V81.67H178.88V82.09C178.88 84.51 178.19 86.42 176.81 87.82C175.45 89.22 173.51 89.92 170.99 89.92ZM189.487 89.92C188.007 89.92 186.687 89.62 185.527 89.02C184.387 88.4 183.487 87.52 182.827 86.38C182.167 85.24 181.837 83.89 181.837 82.33V81.88C181.837 80.32 182.167 78.98 182.827 77.86C183.487 76.72 184.387 75.84 185.527 75.22C186.687 74.6 188.007 74.29 189.487 74.29C190.967 74.29 192.287 74.6 193.447 75.22C194.607 75.84 195.517 76.72 196.177 77.86C196.837 78.98 197.167 80.32 197.167 81.88V82.33C197.167 83.89 196.837 85.24 196.177 86.38C195.517 87.52 194.607 88.4 193.447 89.02C192.287 89.62 190.967 89.92 189.487 89.92ZM189.487 87.16C190.847 87.16 191.947 86.73 192.787 85.87C193.647 84.99 194.077 83.78 194.077 82.24V81.97C194.077 80.43 193.657 79.23 192.817 78.37C191.977 77.49 190.867 77.05 189.487 77.05C188.147 77.05 187.047 77.49 186.187 78.37C185.347 79.23 184.927 80.43 184.927 81.97V82.24C184.927 83.78 185.347 84.99 186.187 85.87C187.047 86.73 188.147 87.16 189.487 87.16ZM201.014 89.5V74.71H204.044V76.93H204.524C204.804 76.33 205.304 75.77 206.024 75.25C206.744 74.73 207.814 74.47 209.234 74.47C210.354 74.47 211.344 74.72 212.204 75.22C213.084 75.72 213.774 76.43 214.274 77.35C214.774 78.25 215.024 79.34 215.024 80.62V89.5H211.934V80.86C211.934 79.58 211.614 78.64 210.974 78.04C210.334 77.42 209.454 77.11 208.334 77.11C207.054 77.11 206.024 77.53 205.244 78.37C204.484 79.21 204.104 80.43 204.104 82.03V89.5H201.014ZM224.611 89.5C223.711 89.5 222.991 89.23 222.451 88.69C221.931 88.15 221.671 87.43 221.671 86.53V77.32H217.591V74.71H221.671V69.82H224.761V74.71H229.171V77.32H224.761V85.99C224.761 86.59 225.041 86.89 225.601 86.89H228.691V89.5H224.611ZM232.801 89.5V74.71H235.891V89.5H232.801ZM234.361 72.7C233.761 72.7 233.251 72.51 232.831 72.13C232.431 71.73 232.231 71.22 232.231 70.6C232.231 69.98 232.431 69.48 232.831 69.1C233.251 68.7 233.761 68.5 234.361 68.5C234.981 68.5 235.491 68.7 235.891 69.1C236.291 69.48 236.491 69.98 236.491 70.6C236.491 71.22 236.291 71.73 235.891 72.13C235.491 72.51 234.981 72.7 234.361 72.7ZM240.477 89.5V74.71H243.507V76.93H243.987C244.267 76.33 244.767 75.77 245.487 75.25C246.207 74.73 247.277 74.47 248.697 74.47C249.817 74.47 250.807 74.72 251.667 75.22C252.547 75.72 253.237 76.43 253.737 77.35C254.237 78.25 254.487 79.34 254.487 80.62V89.5H251.397V80.86C251.397 79.58 251.077 78.64 250.437 78.04C249.797 77.42 248.917 77.11 247.797 77.11C246.517 77.11 245.487 77.53 244.707 78.37C243.947 79.21 243.567 80.43 243.567 82.03V89.5H240.477ZM264.37 89.77C263.25 89.77 262.25 89.52 261.37 89.02C260.49 88.52 259.8 87.81 259.3 86.89C258.8 85.97 258.55 84.87 258.55 83.59V74.71H261.64V83.38C261.64 84.66 261.96 85.61 262.6 86.23C263.24 86.83 264.13 87.13 265.27 87.13C266.53 87.13 267.54 86.71 268.3 85.87C269.08 85.01 269.47 83.78 269.47 82.18V74.71H272.56V89.5H269.53V87.28H269.05C268.77 87.88 268.27 88.45 267.55 88.99C266.83 89.51 265.77 89.77 264.37 89.77ZM281.718 89.92C280.658 89.92 279.708 89.74 278.868 89.38C278.048 89.02 277.388 88.49 276.888 87.79C276.408 87.09 276.168 86.24 276.168 85.24C276.168 84.22 276.408 83.38 276.888 82.72C277.388 82.04 278.058 81.53 278.898 81.19C279.758 80.85 280.728 80.68 281.808 80.68H286.308V79.72C286.308 78.86 286.048 78.17 285.528 77.65C285.008 77.13 284.208 76.87 283.128 76.87C282.068 76.87 281.258 77.12 280.698 77.62C280.138 78.12 279.768 78.77 279.588 79.57L276.708 78.64C276.948 77.84 277.328 77.12 277.848 76.48C278.388 75.82 279.098 75.29 279.978 74.89C280.858 74.49 281.918 74.29 283.158 74.29C285.078 74.29 286.588 74.78 287.688 75.76C288.788 76.74 289.338 78.13 289.338 79.93V86.02C289.338 86.62 289.618 86.92 290.178 86.92H291.438V89.5H289.128C288.428 89.5 287.858 89.32 287.418 88.96C286.978 88.6 286.758 88.11 286.758 87.49V87.4H286.308C286.148 87.7 285.908 88.05 285.588 88.45C285.268 88.85 284.798 89.2 284.178 89.5C283.558 89.78 282.738 89.92 281.718 89.92ZM282.168 87.37C283.408 87.37 284.408 87.02 285.168 86.32C285.928 85.6 286.308 84.62 286.308 83.38V83.08H281.988C281.168 83.08 280.508 83.26 280.008 83.62C279.508 83.96 279.258 84.47 279.258 85.15C279.258 85.83 279.518 86.37 280.038 86.77C280.558 87.17 281.268 87.37 282.168 87.37ZM294.442 89.5V68.5H297.532V89.5H294.442ZM309.674 89.5V68.5H312.914V89.5H309.674ZM317.382 89.5V74.71H320.412V76.45H320.892C321.172 75.93 321.622 75.47 322.242 75.07C322.862 74.67 323.702 74.47 324.762 74.47C325.862 74.47 326.742 74.7 327.402 75.16C328.082 75.6 328.592 76.17 328.932 76.87H329.412C329.752 76.19 330.242 75.62 330.882 75.16C331.542 74.7 332.472 74.47 333.672 74.47C334.632 74.47 335.482 74.67 336.222 75.07C336.962 75.45 337.552 76.03 337.992 76.81C338.432 77.57 338.652 78.52 338.652 79.66V89.5H335.562V79.9C335.562 79 335.312 78.31 334.812 77.83C334.332 77.33 333.642 77.08 332.742 77.08C331.782 77.08 331.012 77.39 330.432 78.01C329.852 78.63 329.562 79.52 329.562 80.68V89.5H326.472V79.9C326.472 79 326.222 78.31 325.722 77.83C325.242 77.33 324.552 77.08 323.652 77.08C322.692 77.08 321.922 77.39 321.342 78.01C320.762 78.63 320.472 79.52 320.472 80.68V89.5H317.382ZM343.104 95.5V74.71H346.134V76.84H346.614C346.994 76.18 347.564 75.59 348.324 75.07C349.104 74.55 350.214 74.29 351.654 74.29C352.894 74.29 354.024 74.59 355.044 75.19C356.084 75.79 356.914 76.66 357.534 77.8C358.174 78.92 358.494 80.28 358.494 81.88V82.33C358.494 83.93 358.184 85.3 357.564 86.44C356.944 87.56 356.114 88.42 355.074 89.02C354.034 89.62 352.894 89.92 351.654 89.92C350.694 89.92 349.884 89.8 349.224 89.56C348.564 89.32 348.034 89.02 347.634 88.66C347.234 88.28 346.914 87.89 346.674 87.49H346.194V95.5H343.104ZM350.754 87.22C352.114 87.22 353.224 86.79 354.084 85.93C354.944 85.07 355.374 83.84 355.374 82.24V81.97C355.374 80.39 354.934 79.17 354.054 78.31C353.194 77.45 352.094 77.02 350.754 77.02C349.434 77.02 348.334 77.45 347.454 78.31C346.594 79.17 346.164 80.39 346.164 81.97V82.24C346.164 83.84 346.594 85.07 347.454 85.93C348.334 86.79 349.434 87.22 350.754 87.22ZM362.323 89.5V74.71H365.353V76.45H365.833C366.073 75.83 366.453 75.38 366.973 75.1C367.513 74.8 368.173 74.65 368.953 74.65H370.723V77.44H368.833C367.833 77.44 367.013 77.72 366.373 78.28C365.733 78.82 365.413 79.66 365.413 80.8V89.5H362.323ZM380.327 89.92C378.847 89.92 377.527 89.62 376.367 89.02C375.227 88.4 374.327 87.52 373.667 86.38C373.007 85.24 372.677 83.89 372.677 82.33V81.88C372.677 80.32 373.007 78.98 373.667 77.86C374.327 76.72 375.227 75.84 376.367 75.22C377.527 74.6 378.847 74.29 380.327 74.29C381.807 74.29 383.127 74.6 384.287 75.22C385.447 75.84 386.357 76.72 387.017 77.86C387.677 78.98 388.007 80.32 388.007 81.88V82.33C388.007 83.89 387.677 85.24 387.017 86.38C386.357 87.52 385.447 88.4 384.287 89.02C383.127 89.62 381.807 89.92 380.327 89.92ZM380.327 87.16C381.687 87.16 382.787 86.73 383.627 85.87C384.487 84.99 384.917 83.78 384.917 82.24V81.97C384.917 80.43 384.497 79.23 383.657 78.37C382.817 77.49 381.707 77.05 380.327 77.05C378.987 77.05 377.887 77.49 377.027 78.37C376.187 79.23 375.767 80.43 375.767 81.97V82.24C375.767 83.78 376.187 84.99 377.027 85.87C377.887 86.73 378.987 87.16 380.327 87.16ZM394.776 89.5L389.796 74.71H393.066L396.996 87.22H397.476L401.406 74.71H404.676L399.696 89.5H394.776ZM413.956 89.92C412.456 89.92 411.146 89.61 410.026 88.99C408.906 88.35 408.026 87.46 407.386 86.32C406.766 85.16 406.456 83.82 406.456 82.3V81.94C406.456 80.4 406.766 79.06 407.386 77.92C408.006 76.76 408.866 75.87 409.966 75.25C411.086 74.61 412.376 74.29 413.836 74.29C415.256 74.29 416.496 74.61 417.556 75.25C418.636 75.87 419.476 76.74 420.076 77.86C420.676 78.98 420.976 80.29 420.976 81.79V82.96H409.606C409.646 84.26 410.076 85.3 410.896 86.08C411.736 86.84 412.776 87.22 414.016 87.22C415.176 87.22 416.046 86.96 416.626 86.44C417.226 85.92 417.686 85.32 418.006 84.64L420.556 85.96C420.276 86.52 419.866 87.11 419.326 87.73C418.806 88.35 418.116 88.87 417.256 89.29C416.396 89.71 415.296 89.92 413.956 89.92ZM409.636 80.59H417.826C417.746 79.47 417.346 78.6 416.626 77.98C415.906 77.34 414.966 77.02 413.806 77.02C412.646 77.02 411.696 77.34 410.956 77.98C410.236 78.6 409.796 79.47 409.636 80.59ZM424.696 89.5V74.71H427.726V76.45H428.206C428.486 75.93 428.936 75.47 429.556 75.07C430.176 74.67 431.016 74.47 432.076 74.47C433.176 74.47 434.056 74.7 434.716 75.16C435.396 75.6 435.906 76.17 436.246 76.87H436.726C437.066 76.19 437.556 75.62 438.196 75.16C438.856 74.7 439.786 74.47 440.986 74.47C441.946 74.47 442.796 74.67 443.536 75.07C444.276 75.45 444.866 76.03 445.306 76.81C445.746 77.57 445.966 78.52 445.966 79.66V89.5H442.876V79.9C442.876 79 442.626 78.31 442.126 77.83C441.646 77.33 440.956 77.08 440.056 77.08C439.096 77.08 438.326 77.39 437.746 78.01C437.166 78.63 436.876 79.52 436.876 80.68V89.5H433.786V79.9C433.786 79 433.536 78.31 433.036 77.83C432.556 77.33 431.866 77.08 430.966 77.08C430.006 77.08 429.236 77.39 428.656 78.01C428.076 78.63 427.786 79.52 427.786 80.68V89.5H424.696ZM457.199 89.92C455.699 89.92 454.389 89.61 453.269 88.99C452.149 88.35 451.269 87.46 450.629 86.32C450.009 85.16 449.699 83.82 449.699 82.3V81.94C449.699 80.4 450.009 79.06 450.629 77.92C451.249 76.76 452.109 75.87 453.209 75.25C454.329 74.61 455.619 74.29 457.079 74.29C458.499 74.29 459.739 74.61 460.799 75.25C461.879 75.87 462.719 76.74 463.319 77.86C463.919 78.98 464.219 80.29 464.219 81.79V82.96H452.849C452.889 84.26 453.319 85.3 454.139 86.08C454.979 86.84 456.019 87.22 457.259 87.22C458.419 87.22 459.289 86.96 459.869 86.44C460.469 85.92 460.929 85.32 461.249 84.64L463.799 85.96C463.519 86.52 463.109 87.11 462.569 87.73C462.049 88.35 461.359 88.87 460.499 89.29C459.639 89.71 458.539 89.92 457.199 89.92ZM452.879 80.59H461.069C460.989 79.47 460.589 78.6 459.869 77.98C459.149 77.34 458.209 77.02 457.049 77.02C455.889 77.02 454.939 77.34 454.199 77.98C453.479 78.6 453.039 79.47 452.879 80.59ZM467.938 89.5V74.71H470.968V76.93H471.448C471.728 76.33 472.228 75.77 472.948 75.25C473.668 74.73 474.738 74.47 476.158 74.47C477.278 74.47 478.268 74.72 479.128 75.22C480.008 75.72 480.698 76.43 481.198 77.35C481.698 78.25 481.948 79.34 481.948 80.62V89.5H478.858V80.86C478.858 79.58 478.538 78.64 477.898 78.04C477.258 77.42 476.378 77.11 475.258 77.11C473.978 77.11 472.948 77.53 472.168 78.37C471.408 79.21 471.028 80.43 471.028 82.03V89.5H467.938ZM491.535 89.5C490.635 89.5 489.915 89.23 489.375 88.69C488.855 88.15 488.595 87.43 488.595 86.53V77.32H484.515V74.71H488.595V69.82H491.685V74.71H496.095V77.32H491.685V85.99C491.685 86.59 491.965 86.89 492.525 86.89H495.615V89.5H491.535Z" fill="#191A23"/>
<circle cx="1148" cy="79.5" r="28.5" fill="#F3F3F3" stroke="#191A23"/>
<path d="M1144.6 91.58V81.86H1135V76.22H1144.6V66.5H1150.48V76.22H1160.08V81.86H1150.48V91.58H1144.6Z" fill="#191A23"/>
</g>
</g>
<defs>
<filter id="filter0_d_339_241" x="0" y="0" width="1234" height="164" filterUnits="userSpaceOnUse" color-interpolation-filters="sRGB">
<feFlood flood-opacity="0" result="BackgroundImageFix"/>
<feColorMatrix in="SourceAlpha" type="matrix" values="0 0 0 0 0 0 0 0 0 0 0 0 0 0 0 0 0 0 127 0" result="hardAlpha"/>
<feOffset dy="5"/>
<feComposite in2="hardAlpha" operator="out"/>
<feColorMatrix type="matrix" values="0 0 0 0 0.0980392 0 0 0 0 0.101961 0 0 0 0 0.137255 0 0 0 1 0"/>
<feBlend mode="normal" in2="BackgroundImageFix" result="effect1_dropShadow_339_241"/>
<feBlend mode="normal" in="SourceGraphic" in2="effect1_dropShadow_339_241" result="shape"/>
</filter>
<clipPath id="clip0_339_241">
<rect width="1117" height="77" fill="white" transform="translate(60 41)"/>
</clipPath>
</defs>
</svg>
