<svg width="1234" height="164" viewBox="0 0 1234 164" fill="none" xmlns="http://www.w3.org/2000/svg">
<g filter="url(#filter0_d_339_233)">
<rect width="1234" height="159" rx="45" fill="#F3F3F3"/>
<rect x="0.5" y="0.5" width="1233" height="158" rx="44.5" stroke="#191A23"/>
<g clip-path="url(#clip0_339_233)">
<path d="M79.32 100.84C74.44 100.84 70.54 99.46 67.62 96.7C64.74 93.9 63.3 89.7 63.3 84.1V73.9C63.3 68.42 64.74 64.26 67.62 61.42C70.54 58.58 74.44 57.16 79.32 57.16C84.24 57.16 88.14 58.58 91.02 61.42C93.94 64.26 95.4 68.42 95.4 73.9V84.1C95.4 89.7 93.94 93.9 91.02 96.7C88.14 99.46 84.24 100.84 79.32 100.84ZM79.32 95.2C82.64 95.2 85.1 94.26 86.7 92.38C88.3 90.46 89.1 87.78 89.1 84.34V73.54C89.1 70.1 88.24 67.46 86.52 65.62C84.8 63.74 82.4 62.8 79.32 62.8C76.2 62.8 73.8 63.76 72.12 65.68C70.44 67.56 69.6 70.18 69.6 73.54V84.34C69.6 87.86 70.4 90.56 72 92.44C73.64 94.28 76.08 95.2 79.32 95.2ZM116.792 100.84C113.632 100.84 110.892 100.26 108.572 99.1C106.252 97.94 104.452 96.3 103.172 94.18C101.932 92.06 101.312 89.6 101.312 86.8V86.14H107.732V86.74C107.732 89.3 108.512 91.36 110.072 92.92C111.672 94.44 113.892 95.2 116.732 95.2C119.652 95.2 121.912 94.4 123.512 92.8C125.112 91.2 125.912 89.04 125.912 86.32V85.78C125.912 83.18 125.112 81.1 123.512 79.54C121.952 77.98 119.952 77.2 117.512 77.2C116.152 77.2 115.012 77.42 114.092 77.86C113.212 78.26 112.492 78.76 111.932 79.36C111.412 79.96 110.972 80.54 110.612 81.1H102.632V58H130.772V63.7H108.932V76.06H109.892C110.292 75.38 110.852 74.74 111.572 74.14C112.332 73.5 113.312 72.98 114.512 72.58C115.712 72.18 117.152 71.98 118.832 71.98C121.312 71.98 123.552 72.52 125.552 73.6C127.592 74.64 129.212 76.2 130.412 78.28C131.612 80.32 132.212 82.8 132.212 85.72V86.38C132.212 89.3 131.592 91.84 130.352 94C129.112 96.16 127.332 97.84 125.012 99.04C122.732 100.24 119.992 100.84 116.792 100.84Z" fill="black"/>
<path d="M162.19 89.5V68.5H171.01C172.31 68.5 173.45 68.73 174.43 69.19C175.43 69.63 176.2 70.27 176.74 71.11C177.3 71.95 177.58 72.95 177.58 74.11V74.44C177.58 75.76 177.26 76.82 176.62 77.62C176 78.4 175.24 78.95 174.34 79.27V79.75C175.1 79.79 175.71 80.05 176.17 80.53C176.63 80.99 176.86 81.66 176.86 82.54V89.5H173.59V82.99C173.59 82.45 173.45 82.02 173.17 81.7C172.89 81.38 172.44 81.22 171.82 81.22H165.43V89.5H162.19ZM165.43 78.28H170.65C171.81 78.28 172.71 77.99 173.35 77.41C173.99 76.81 174.31 76 174.31 74.98V74.74C174.31 73.72 173.99 72.92 173.35 72.34C172.73 71.74 171.83 71.44 170.65 71.44H165.43V78.28ZM188.015 89.92C186.515 89.92 185.205 89.61 184.085 88.99C182.965 88.35 182.085 87.46 181.445 86.32C180.825 85.16 180.515 83.82 180.515 82.3V81.94C180.515 80.4 180.825 79.06 181.445 77.92C182.065 76.76 182.925 75.87 184.025 75.25C185.145 74.61 186.435 74.29 187.895 74.29C189.315 74.29 190.555 74.61 191.615 75.25C192.695 75.87 193.535 76.74 194.135 77.86C194.735 78.98 195.035 80.29 195.035 81.79V82.96H183.665C183.705 84.26 184.135 85.3 184.955 86.08C185.795 86.84 186.835 87.22 188.075 87.22C189.235 87.22 190.105 86.96 190.685 86.44C191.285 85.92 191.745 85.32 192.065 84.64L194.615 85.96C194.335 86.52 193.925 87.11 193.385 87.73C192.865 88.35 192.175 88.87 191.315 89.29C190.455 89.71 189.355 89.92 188.015 89.92ZM183.695 80.59H191.885C191.805 79.47 191.405 78.6 190.685 77.98C189.965 77.34 189.025 77.02 187.865 77.02C186.705 77.02 185.755 77.34 185.015 77.98C184.295 78.6 183.855 79.47 183.695 80.59ZM198.755 95.5V74.71H201.785V76.84H202.265C202.645 76.18 203.215 75.59 203.975 75.07C204.755 74.55 205.865 74.29 207.305 74.29C208.545 74.29 209.675 74.59 210.695 75.19C211.735 75.79 212.565 76.66 213.185 77.8C213.825 78.92 214.145 80.28 214.145 81.88V82.33C214.145 83.93 213.835 85.3 213.215 86.44C212.595 87.56 211.765 88.42 210.725 89.02C209.685 89.62 208.545 89.92 207.305 89.92C206.345 89.92 205.535 89.8 204.875 89.56C204.215 89.32 203.685 89.02 203.285 88.66C202.885 88.28 202.565 87.89 202.325 87.49H201.845V95.5H198.755ZM206.405 87.22C207.765 87.22 208.875 86.79 209.735 85.93C210.595 85.07 211.025 83.84 211.025 82.24V81.97C211.025 80.39 210.585 79.17 209.705 78.31C208.845 77.45 207.745 77.02 206.405 77.02C205.085 77.02 203.985 77.45 203.105 78.31C202.245 79.17 201.815 80.39 201.815 81.97V82.24C201.815 83.84 202.245 85.07 203.105 85.93C203.985 86.79 205.085 87.22 206.405 87.22ZM224.903 89.92C223.423 89.92 222.103 89.62 220.943 89.02C219.803 88.4 218.903 87.52 218.243 86.38C217.583 85.24 217.253 83.89 217.253 82.33V81.88C217.253 80.32 217.583 78.98 218.243 77.86C218.903 76.72 219.803 75.84 220.943 75.22C222.103 74.6 223.423 74.29 224.903 74.29C226.383 74.29 227.703 74.6 228.863 75.22C230.023 75.84 230.933 76.72 231.593 77.86C232.253 78.98 232.583 80.32 232.583 81.88V82.33C232.583 83.89 232.253 85.24 231.593 86.38C230.933 87.52 230.023 88.4 228.863 89.02C227.703 89.62 226.383 89.92 224.903 89.92ZM224.903 87.16C226.263 87.16 227.363 86.73 228.203 85.87C229.063 84.99 229.493 83.78 229.493 82.24V81.97C229.493 80.43 229.073 79.23 228.233 78.37C227.393 77.49 226.283 77.05 224.903 77.05C223.563 77.05 222.463 77.49 221.603 78.37C220.763 79.23 220.343 80.43 220.343 81.97V82.24C220.343 83.78 220.763 84.99 221.603 85.87C222.463 86.73 223.563 87.16 224.903 87.16ZM236.43 89.5V74.71H239.46V76.45H239.94C240.18 75.83 240.56 75.38 241.08 75.1C241.62 74.8 242.28 74.65 243.06 74.65H244.83V77.44H242.94C241.94 77.44 241.12 77.72 240.48 78.28C239.84 78.82 239.52 79.66 239.52 80.8V89.5H236.43ZM253.582 89.5C252.682 89.5 251.962 89.23 251.422 88.69C250.902 88.15 250.642 87.43 250.642 86.53V77.32H246.562V74.71H250.642V69.82H253.732V74.71H258.142V77.32H253.732V85.99C253.732 86.59 254.012 86.89 254.572 86.89H257.662V89.5H253.582ZM261.772 89.5V74.71H264.862V89.5H261.772ZM263.332 72.7C262.732 72.7 262.222 72.51 261.802 72.13C261.402 71.73 261.202 71.22 261.202 70.6C261.202 69.98 261.402 69.48 261.802 69.1C262.222 68.7 262.732 68.5 263.332 68.5C263.952 68.5 264.462 68.7 264.862 69.1C265.262 69.48 265.462 69.98 265.462 70.6C265.462 71.22 265.262 71.73 264.862 72.13C264.462 72.51 263.952 72.7 263.332 72.7ZM269.448 89.5V74.71H272.478V76.93H272.958C273.238 76.33 273.738 75.77 274.458 75.25C275.178 74.73 276.248 74.47 277.668 74.47C278.788 74.47 279.778 74.72 280.638 75.22C281.518 75.72 282.208 76.43 282.708 77.35C283.208 78.25 283.458 79.34 283.458 80.62V89.5H280.368V80.86C280.368 79.58 280.048 78.64 279.408 78.04C278.768 77.42 277.888 77.11 276.768 77.11C275.488 77.11 274.458 77.53 273.678 78.37C272.918 79.21 272.538 80.43 272.538 82.03V89.5H269.448ZM287.185 82.18V81.73C287.185 80.17 287.495 78.84 288.115 77.74C288.755 76.64 289.595 75.79 290.635 75.19C291.675 74.59 292.815 74.29 294.055 74.29C295.495 74.29 296.595 74.56 297.355 75.1C298.135 75.64 298.705 76.22 299.065 76.84H299.545V74.71H302.545V92.53C302.545 93.43 302.275 94.15 301.735 94.69C301.215 95.23 300.495 95.5 299.575 95.5H289.615V92.8H298.615C299.195 92.8 299.485 92.5 299.485 91.9V87.19H299.005C298.785 87.55 298.475 87.92 298.075 88.3C297.675 88.68 297.145 88.99 296.485 89.23C295.845 89.47 295.035 89.59 294.055 89.59C292.815 89.59 291.665 89.3 290.605 88.72C289.565 88.12 288.735 87.27 288.115 86.17C287.495 85.05 287.185 83.72 287.185 82.18ZM294.895 86.89C296.235 86.89 297.335 86.47 298.195 85.63C299.075 84.77 299.515 83.59 299.515 82.09V81.82C299.515 80.28 299.085 79.1 298.225 78.28C297.365 77.44 296.255 77.02 294.895 77.02C293.575 77.02 292.475 77.44 291.595 78.28C290.735 79.1 290.305 80.28 290.305 81.82V82.09C290.305 83.59 290.735 84.77 291.595 85.63C292.475 86.47 293.575 86.89 294.895 86.89ZM319.331 89.92C318.271 89.92 317.321 89.74 316.481 89.38C315.661 89.02 315.001 88.49 314.501 87.79C314.021 87.09 313.781 86.24 313.781 85.24C313.781 84.22 314.021 83.38 314.501 82.72C315.001 82.04 315.671 81.53 316.511 81.19C317.371 80.85 318.341 80.68 319.421 80.68H323.921V79.72C323.921 78.86 323.661 78.17 323.141 77.65C322.621 77.13 321.821 76.87 320.741 76.87C319.681 76.87 318.871 77.12 318.311 77.62C317.751 78.12 317.381 78.77 317.201 79.57L314.321 78.64C314.561 77.84 314.941 77.12 315.461 76.48C316.001 75.82 316.711 75.29 317.591 74.89C318.471 74.49 319.531 74.29 320.771 74.29C322.691 74.29 324.201 74.78 325.301 75.76C326.401 76.74 326.951 78.13 326.951 79.93V86.02C326.951 86.62 327.231 86.92 327.791 86.92H329.051V89.5H326.741C326.041 89.5 325.471 89.32 325.031 88.96C324.591 88.6 324.371 88.11 324.371 87.49V87.4H323.921C323.761 87.7 323.521 88.05 323.201 88.45C322.881 88.85 322.411 89.2 321.791 89.5C321.171 89.78 320.351 89.92 319.331 89.92ZM319.781 87.37C321.021 87.37 322.021 87.02 322.781 86.32C323.541 85.6 323.921 84.62 323.921 83.38V83.08H319.601C318.781 83.08 318.121 83.26 317.621 83.62C317.121 83.96 316.871 84.47 316.871 85.15C316.871 85.83 317.131 86.37 317.651 86.77C318.171 87.17 318.881 87.37 319.781 87.37ZM332.055 89.5V74.71H335.085V76.93H335.565C335.845 76.33 336.345 75.77 337.065 75.25C337.785 74.73 338.855 74.47 340.275 74.47C341.395 74.47 342.385 74.72 343.245 75.22C344.125 75.72 344.815 76.43 345.315 77.35C345.815 78.25 346.065 79.34 346.065 80.62V89.5H342.975V80.86C342.975 79.58 342.655 78.64 342.015 78.04C341.375 77.42 340.495 77.11 339.375 77.11C338.095 77.11 337.065 77.53 336.285 78.37C335.525 79.21 335.145 80.43 335.145 82.03V89.5H332.055ZM356.632 89.92C355.412 89.92 354.282 89.62 353.242 89.02C352.202 88.42 351.362 87.56 350.722 86.44C350.102 85.3 349.792 83.93 349.792 82.33V81.88C349.792 80.3 350.102 78.94 350.722 77.8C351.342 76.66 352.172 75.79 353.212 75.19C354.252 74.59 355.392 74.29 356.632 74.29C357.592 74.29 358.392 74.41 359.032 74.65C359.692 74.89 360.232 75.2 360.652 75.58C361.072 75.94 361.392 76.32 361.612 76.72H362.092V68.5H365.182V89.5H362.152V87.4H361.672C361.292 88.04 360.712 88.62 359.932 89.14C359.172 89.66 358.072 89.92 356.632 89.92ZM357.502 87.22C358.842 87.22 359.942 86.79 360.802 85.93C361.682 85.07 362.122 83.84 362.122 82.24V81.97C362.122 80.39 361.692 79.17 360.832 78.31C359.972 77.45 358.862 77.02 357.502 77.02C356.182 77.02 355.082 77.45 354.202 78.31C353.342 79.17 352.912 80.39 352.912 81.97V82.24C352.912 83.84 353.342 85.07 354.202 85.93C355.082 86.79 356.182 87.22 357.502 87.22ZM385.088 89.92C382.528 89.92 380.498 89.2 378.998 87.76C377.498 86.3 376.748 84.2 376.748 81.46V76.54C376.748 73.8 377.498 71.71 378.998 70.27C380.498 68.81 382.528 68.08 385.088 68.08C387.608 68.08 389.548 68.78 390.908 70.18C392.288 71.58 392.978 73.49 392.978 75.91V76.09H389.768V75.82C389.768 74.4 389.378 73.24 388.598 72.34C387.838 71.44 386.668 70.99 385.088 70.99C383.488 70.99 382.238 71.48 381.338 72.46C380.438 73.42 379.988 74.76 379.988 76.48V81.52C379.988 83.22 380.438 84.56 381.338 85.54C382.238 86.52 383.488 87.01 385.088 87.01C386.668 87.01 387.838 86.56 388.598 85.66C389.378 84.74 389.768 83.58 389.768 82.18V81.67H392.978V82.09C392.978 84.51 392.288 86.42 390.908 87.82C389.548 89.22 387.608 89.92 385.088 89.92ZM403.585 89.92C402.105 89.92 400.785 89.62 399.625 89.02C398.485 88.4 397.585 87.52 396.925 86.38C396.265 85.24 395.935 83.89 395.935 82.33V81.88C395.935 80.32 396.265 78.98 396.925 77.86C397.585 76.72 398.485 75.84 399.625 75.22C400.785 74.6 402.105 74.29 403.585 74.29C405.065 74.29 406.385 74.6 407.545 75.22C408.705 75.84 409.615 76.72 410.275 77.86C410.935 78.98 411.265 80.32 411.265 81.88V82.33C411.265 83.89 410.935 85.24 410.275 86.38C409.615 87.52 408.705 88.4 407.545 89.02C406.385 89.62 405.065 89.92 403.585 89.92ZM403.585 87.16C404.945 87.16 406.045 86.73 406.885 85.87C407.745 84.99 408.175 83.78 408.175 82.24V81.97C408.175 80.43 407.755 79.23 406.915 78.37C406.075 77.49 404.965 77.05 403.585 77.05C402.245 77.05 401.145 77.49 400.285 78.37C399.445 79.23 399.025 80.43 399.025 81.97V82.24C399.025 83.78 399.445 84.99 400.285 85.87C401.145 86.73 402.245 87.16 403.585 87.16ZM415.112 89.5V74.71H418.142V76.45H418.622C418.902 75.93 419.352 75.47 419.972 75.07C420.592 74.67 421.432 74.47 422.492 74.47C423.592 74.47 424.472 74.7 425.132 75.16C425.812 75.6 426.322 76.17 426.662 76.87H427.142C427.482 76.19 427.972 75.62 428.612 75.16C429.272 74.7 430.202 74.47 431.402 74.47C432.362 74.47 433.212 74.67 433.952 75.07C434.692 75.45 435.282 76.03 435.722 76.81C436.162 77.57 436.382 78.52 436.382 79.66V89.5H433.292V79.9C433.292 79 433.042 78.31 432.542 77.83C432.062 77.33 431.372 77.08 430.472 77.08C429.512 77.08 428.742 77.39 428.162 78.01C427.582 78.63 427.292 79.52 427.292 80.68V89.5H424.202V79.9C424.202 79 423.952 78.31 423.452 77.83C422.972 77.33 422.282 77.08 421.382 77.08C420.422 77.08 419.652 77.39 419.072 78.01C418.492 78.63 418.202 79.52 418.202 80.68V89.5H415.112ZM440.835 89.5V74.71H443.865V76.45H444.345C444.625 75.93 445.075 75.47 445.695 75.07C446.315 74.67 447.155 74.47 448.215 74.47C449.315 74.47 450.195 74.7 450.855 75.16C451.535 75.6 452.045 76.17 452.385 76.87H452.865C453.205 76.19 453.695 75.62 454.335 75.16C454.995 74.7 455.925 74.47 457.125 74.47C458.085 74.47 458.935 74.67 459.675 75.07C460.415 75.45 461.005 76.03 461.445 76.81C461.885 77.57 462.105 78.52 462.105 79.66V89.5H459.015V79.9C459.015 79 458.765 78.31 458.265 77.83C457.785 77.33 457.095 77.08 456.195 77.08C455.235 77.08 454.465 77.39 453.885 78.01C453.305 78.63 453.015 79.52 453.015 80.68V89.5H449.925V79.9C449.925 79 449.675 78.31 449.175 77.83C448.695 77.33 448.005 77.08 447.105 77.08C446.145 77.08 445.375 77.39 444.795 78.01C444.215 78.63 443.925 79.52 443.925 80.68V89.5H440.835ZM471.993 89.77C470.873 89.77 469.873 89.52 468.993 89.02C468.113 88.52 467.423 87.81 466.923 86.89C466.423 85.97 466.173 84.87 466.173 83.59V74.71H469.263V83.38C469.263 84.66 469.583 85.61 470.223 86.23C470.863 86.83 471.753 87.13 472.893 87.13C474.153 87.13 475.163 86.71 475.923 85.87C476.703 85.01 477.093 83.78 477.093 82.18V74.71H480.183V89.5H477.153V87.28H476.673C476.393 87.88 475.893 88.45 475.173 88.99C474.453 89.51 473.393 89.77 471.993 89.77ZM484.751 89.5V74.71H487.781V76.93H488.261C488.541 76.33 489.041 75.77 489.761 75.25C490.481 74.73 491.551 74.47 492.971 74.47C494.091 74.47 495.081 74.72 495.941 75.22C496.821 75.72 497.511 76.43 498.011 77.35C498.511 78.25 498.761 79.34 498.761 80.62V89.5H495.671V80.86C495.671 79.58 495.351 78.64 494.711 78.04C494.071 77.42 493.191 77.11 492.071 77.11C490.791 77.11 489.761 77.53 488.981 78.37C488.221 79.21 487.841 80.43 487.841 82.03V89.5H484.751ZM503.208 89.5V74.71H506.298V89.5H503.208ZM504.768 72.7C504.168 72.7 503.658 72.51 503.238 72.13C502.838 71.73 502.638 71.22 502.638 70.6C502.638 69.98 502.838 69.48 503.238 69.1C503.658 68.7 504.168 68.5 504.768 68.5C505.388 68.5 505.898 68.7 506.298 69.1C506.698 69.48 506.898 69.98 506.898 70.6C506.898 71.22 506.698 71.73 506.298 72.13C505.898 72.51 505.388 72.7 504.768 72.7ZM517.754 89.92C516.334 89.92 515.044 89.62 513.884 89.02C512.744 88.42 511.834 87.55 511.154 86.41C510.494 85.27 510.164 83.9 510.164 82.3V81.91C510.164 80.31 510.494 78.95 511.154 77.83C511.834 76.69 512.744 75.82 513.884 75.22C515.044 74.6 516.334 74.29 517.754 74.29C519.174 74.29 520.384 74.55 521.384 75.07C522.384 75.59 523.184 76.28 523.784 77.14C524.404 78 524.804 78.95 524.984 79.99L521.984 80.62C521.884 79.96 521.674 79.36 521.354 78.82C521.034 78.28 520.584 77.85 520.004 77.53C519.424 77.21 518.694 77.05 517.814 77.05C516.954 77.05 516.174 77.25 515.474 77.65C514.794 78.03 514.254 78.59 513.854 79.33C513.454 80.05 513.254 80.93 513.254 81.97V82.24C513.254 83.28 513.454 84.17 513.854 84.91C514.254 85.65 514.794 86.21 515.474 86.59C516.174 86.97 516.954 87.16 517.814 87.16C519.114 87.16 520.104 86.83 520.784 86.17C521.464 85.49 521.894 84.63 522.074 83.59L525.074 84.28C524.834 85.3 524.404 86.24 523.784 87.1C523.184 87.96 522.384 88.65 521.384 89.17C520.384 89.67 519.174 89.92 517.754 89.92ZM533.227 89.92C532.167 89.92 531.217 89.74 530.377 89.38C529.557 89.02 528.897 88.49 528.397 87.79C527.917 87.09 527.677 86.24 527.677 85.24C527.677 84.22 527.917 83.38 528.397 82.72C528.897 82.04 529.567 81.53 530.407 81.19C531.267 80.85 532.237 80.68 533.317 80.68H537.817V79.72C537.817 78.86 537.557 78.17 537.037 77.65C536.517 77.13 535.717 76.87 534.637 76.87C533.577 76.87 532.767 77.12 532.207 77.62C531.647 78.12 531.277 78.77 531.097 79.57L528.217 78.64C528.457 77.84 528.837 77.12 529.357 76.48C529.897 75.82 530.607 75.29 531.487 74.89C532.367 74.49 533.427 74.29 534.667 74.29C536.587 74.29 538.097 74.78 539.197 75.76C540.297 76.74 540.847 78.13 540.847 79.93V86.02C540.847 86.62 541.127 86.92 541.687 86.92H542.947V89.5H540.637C539.937 89.5 539.367 89.32 538.927 88.96C538.487 88.6 538.267 88.11 538.267 87.49V87.4H537.817C537.657 87.7 537.417 88.05 537.097 88.45C536.777 88.85 536.307 89.2 535.687 89.5C535.067 89.78 534.247 89.92 533.227 89.92ZM533.677 87.37C534.917 87.37 535.917 87.02 536.677 86.32C537.437 85.6 537.817 84.62 537.817 83.38V83.08H533.497C532.677 83.08 532.017 83.26 531.517 83.62C531.017 83.96 530.767 84.47 530.767 85.15C530.767 85.83 531.027 86.37 531.547 86.77C532.067 87.17 532.777 87.37 533.677 87.37ZM550.476 89.5C549.576 89.5 548.856 89.23 548.316 88.69C547.796 88.15 547.536 87.43 547.536 86.53V77.32H543.456V74.71H547.536V69.82H550.626V74.71H555.036V77.32H550.626V85.99C550.626 86.59 550.906 86.89 551.466 86.89H554.556V89.5H550.476ZM558.667 89.5V74.71H561.757V89.5H558.667ZM560.227 72.7C559.627 72.7 559.117 72.51 558.697 72.13C558.297 71.73 558.097 71.22 558.097 70.6C558.097 69.98 558.297 69.48 558.697 69.1C559.117 68.7 559.627 68.5 560.227 68.5C560.847 68.5 561.357 68.7 561.757 69.1C562.157 69.48 562.357 69.98 562.357 70.6C562.357 71.22 562.157 71.73 561.757 72.13C561.357 72.51 560.847 72.7 560.227 72.7ZM573.273 89.92C571.793 89.92 570.473 89.62 569.313 89.02C568.173 88.4 567.273 87.52 566.613 86.38C565.953 85.24 565.623 83.89 565.623 82.33V81.88C565.623 80.32 565.953 78.98 566.613 77.86C567.273 76.72 568.173 75.84 569.313 75.22C570.473 74.6 571.793 74.29 573.273 74.29C574.753 74.29 576.073 74.6 577.233 75.22C578.393 75.84 579.303 76.72 579.963 77.86C580.623 78.98 580.953 80.32 580.953 81.88V82.33C580.953 83.89 580.623 85.24 579.963 86.38C579.303 87.52 578.393 88.4 577.233 89.02C576.073 89.62 574.753 89.92 573.273 89.92ZM573.273 87.16C574.633 87.16 575.733 86.73 576.573 85.87C577.433 84.99 577.863 83.78 577.863 82.24V81.97C577.863 80.43 577.443 79.23 576.603 78.37C575.763 77.49 574.653 77.05 573.273 77.05C571.933 77.05 570.833 77.49 569.973 78.37C569.133 79.23 568.713 80.43 568.713 81.97V82.24C568.713 83.78 569.133 84.99 569.973 85.87C570.833 86.73 571.933 87.16 573.273 87.16ZM584.8 89.5V74.71H587.83V76.93H588.31C588.59 76.33 589.09 75.77 589.81 75.25C590.53 74.73 591.6 74.47 593.02 74.47C594.14 74.47 595.13 74.72 595.99 75.22C596.87 75.72 597.56 76.43 598.06 77.35C598.56 78.25 598.81 79.34 598.81 80.62V89.5H595.72V80.86C595.72 79.58 595.4 78.64 594.76 78.04C594.12 77.42 593.24 77.11 592.12 77.11C590.84 77.11 589.81 77.53 589.03 78.37C588.27 79.21 587.89 80.43 587.89 82.03V89.5H584.8Z" fill="black"/>
<circle cx="1148" cy="79.5" r="28.5" fill="#F3F3F3" stroke="#191A23"/>
<path d="M1144.6 91.58V81.86H1135V76.22H1144.6V66.5H1150.48V76.22H1160.08V81.86H1150.48V91.58H1144.6Z" fill="#191A23"/>
</g>
</g>
<defs>
<filter id="filter0_d_339_233" x="0" y="0" width="1234" height="164" filterUnits="userSpaceOnUse" color-interpolation-filters="sRGB">
<feFlood flood-opacity="0" result="BackgroundImageFix"/>
<feColorMatrix in="SourceAlpha" type="matrix" values="0 0 0 0 0 0 0 0 0 0 0 0 0 0 0 0 0 0 127 0" result="hardAlpha"/>
<feOffset dy="5"/>
<feComposite in2="hardAlpha" operator="out"/>
<feColorMatrix type="matrix" values="0 0 0 0 0.0980392 0 0 0 0 0.101961 0 0 0 0 0.137255 0 0 0 1 0"/>
<feBlend mode="normal" in2="BackgroundImageFix" result="effect1_dropShadow_339_233"/>
<feBlend mode="normal" in="SourceGraphic" in2="effect1_dropShadow_339_233" result="shape"/>
</filter>
<clipPath id="clip0_339_233">
<rect width="1117" height="77" fill="white" transform="translate(60 41)"/>
</clipPath>
</defs>
</svg>
