<svg width="1234" height="164" viewBox="0 0 1234 164" fill="none" xmlns="http://www.w3.org/2000/svg">
<g filter="url(#filter0_d_338_204)">
<rect width="1234" height="159" rx="45" fill="#F3F3F3"/>
<rect x="0.5" y="0.5" width="1233" height="158" rx="44.5" stroke="#191A23"/>
<g clip-path="url(#clip0_338_204)">
<path d="M79.32 100.84C74.44 100.84 70.54 99.46 67.62 96.7C64.74 93.9 63.3 89.7 63.3 84.1V73.9C63.3 68.42 64.74 64.26 67.62 61.42C70.54 58.58 74.44 57.16 79.32 57.16C84.24 57.16 88.14 58.58 91.02 61.42C93.94 64.26 95.4 68.42 95.4 73.9V84.1C95.4 89.7 93.94 93.9 91.02 96.7C88.14 99.46 84.24 100.84 79.32 100.84ZM79.32 95.2C82.64 95.2 85.1 94.26 86.7 92.38C88.3 90.46 89.1 87.78 89.1 84.34V73.54C89.1 70.1 88.24 67.46 86.52 65.62C84.8 63.74 82.4 62.8 79.32 62.8C76.2 62.8 73.8 63.76 72.12 65.68C70.44 67.56 69.6 70.18 69.6 73.54V84.34C69.6 87.86 70.4 90.56 72 92.44C73.64 94.28 76.08 95.2 79.32 95.2ZM101.552 100V95.26C101.552 92.34 102.052 89.94 103.052 88.06C104.052 86.18 105.472 84.66 107.312 83.5C109.192 82.3 111.452 81.3 114.092 80.5L117.752 79.36C119.392 78.84 120.792 78.2 121.952 77.44C123.152 76.68 124.072 75.74 124.712 74.62C125.352 73.46 125.672 72.12 125.672 70.6V70.36C125.672 68 124.872 66.16 123.272 64.84C121.672 63.48 119.572 62.8 116.972 62.8C114.292 62.8 112.112 63.52 110.432 64.96C108.792 66.4 107.972 68.52 107.972 71.32V72.28H101.732V71.38C101.732 68.34 102.392 65.78 103.712 63.7C105.032 61.58 106.852 59.96 109.172 58.84C111.492 57.72 114.092 57.16 116.972 57.16C119.852 57.16 122.412 57.7 124.652 58.78C126.932 59.86 128.712 61.38 129.992 63.34C131.312 65.3 131.972 67.6 131.972 70.24V70.78C131.972 73.5 131.432 75.76 130.352 77.56C129.272 79.36 127.772 80.84 125.852 82C123.972 83.16 121.792 84.14 119.312 84.94L115.772 86.02C113.892 86.58 112.372 87.2 111.212 87.88C110.092 88.52 109.252 89.3 108.692 90.22C108.172 91.14 107.912 92.32 107.912 93.76V94.36H131.612V100H101.552Z" fill="black"/>
<path d="M162.19 89.5V68.5H171.01C172.31 68.5 173.45 68.73 174.43 69.19C175.43 69.63 176.2 70.27 176.74 71.11C177.3 71.95 177.58 72.95 177.58 74.11V74.44C177.58 75.76 177.26 76.82 176.62 77.62C176 78.4 175.24 78.95 174.34 79.27V79.75C175.1 79.79 175.71 80.05 176.17 80.53C176.63 80.99 176.86 81.66 176.86 82.54V89.5H173.59V82.99C173.59 82.45 173.45 82.02 173.17 81.7C172.89 81.38 172.44 81.22 171.82 81.22H165.43V89.5H162.19ZM165.43 78.28H170.65C171.81 78.28 172.71 77.99 173.35 77.41C173.99 76.81 174.31 76 174.31 74.98V74.74C174.31 73.72 173.99 72.92 173.35 72.34C172.73 71.74 171.83 71.44 170.65 71.44H165.43V78.28ZM188.015 89.92C186.515 89.92 185.205 89.61 184.085 88.99C182.965 88.35 182.085 87.46 181.445 86.32C180.825 85.16 180.515 83.82 180.515 82.3V81.94C180.515 80.4 180.825 79.06 181.445 77.92C182.065 76.76 182.925 75.87 184.025 75.25C185.145 74.61 186.435 74.29 187.895 74.29C189.315 74.29 190.555 74.61 191.615 75.25C192.695 75.87 193.535 76.74 194.135 77.86C194.735 78.98 195.035 80.29 195.035 81.79V82.96H183.665C183.705 84.26 184.135 85.3 184.955 86.08C185.795 86.84 186.835 87.22 188.075 87.22C189.235 87.22 190.105 86.96 190.685 86.44C191.285 85.92 191.745 85.32 192.065 84.64L194.615 85.96C194.335 86.52 193.925 87.11 193.385 87.73C192.865 88.35 192.175 88.87 191.315 89.29C190.455 89.71 189.355 89.92 188.015 89.92ZM183.695 80.59H191.885C191.805 79.47 191.405 78.6 190.685 77.98C189.965 77.34 189.025 77.02 187.865 77.02C186.705 77.02 185.755 77.34 185.015 77.98C184.295 78.6 183.855 79.47 183.695 80.59ZM204.815 89.92C202.935 89.92 201.375 89.5 200.135 88.66C198.895 87.82 198.135 86.55 197.855 84.85L200.735 84.16C200.895 84.98 201.165 85.63 201.545 86.11C201.925 86.59 202.395 86.93 202.955 87.13C203.535 87.33 204.155 87.43 204.815 87.43C205.795 87.43 206.545 87.24 207.065 86.86C207.605 86.48 207.875 85.99 207.875 85.39C207.875 84.79 207.625 84.35 207.125 84.07C206.625 83.79 205.885 83.56 204.905 83.38L203.885 83.2C202.885 83.02 201.975 82.76 201.155 82.42C200.335 82.08 199.685 81.61 199.205 81.01C198.725 80.41 198.485 79.64 198.485 78.7C198.485 77.3 199.005 76.22 200.045 75.46C201.085 74.68 202.465 74.29 204.185 74.29C205.845 74.29 207.205 74.67 208.265 75.43C209.345 76.17 210.045 77.18 210.365 78.46L207.485 79.27C207.305 78.37 206.925 77.74 206.345 77.38C205.765 77 205.045 76.81 204.185 76.81C203.345 76.81 202.685 76.97 202.205 77.29C201.725 77.59 201.485 78.02 201.485 78.58C201.485 79.18 201.715 79.62 202.175 79.9C202.655 80.18 203.295 80.39 204.095 80.53L205.145 80.71C206.205 80.89 207.175 81.14 208.055 81.46C208.935 81.78 209.625 82.24 210.125 82.84C210.645 83.44 210.905 84.24 210.905 85.24C210.905 86.72 210.355 87.87 209.255 88.69C208.155 89.51 206.675 89.92 204.815 89.92ZM221.296 89.92C219.796 89.92 218.486 89.61 217.366 88.99C216.246 88.35 215.366 87.46 214.726 86.32C214.106 85.16 213.796 83.82 213.796 82.3V81.94C213.796 80.4 214.106 79.06 214.726 77.92C215.346 76.76 216.206 75.87 217.306 75.25C218.426 74.61 219.716 74.29 221.176 74.29C222.596 74.29 223.836 74.61 224.896 75.25C225.976 75.87 226.816 76.74 227.416 77.86C228.016 78.98 228.316 80.29 228.316 81.79V82.96H216.946C216.986 84.26 217.416 85.3 218.236 86.08C219.076 86.84 220.116 87.22 221.356 87.22C222.516 87.22 223.386 86.96 223.966 86.44C224.566 85.92 225.026 85.32 225.346 84.64L227.896 85.96C227.616 86.52 227.206 87.11 226.666 87.73C226.146 88.35 225.456 88.87 224.596 89.29C223.736 89.71 222.636 89.92 221.296 89.92ZM216.976 80.59H225.166C225.086 79.47 224.686 78.6 223.966 77.98C223.246 77.34 222.306 77.02 221.146 77.02C219.986 77.02 219.036 77.34 218.296 77.98C217.576 78.6 217.136 79.47 216.976 80.59ZM236.626 89.92C235.566 89.92 234.616 89.74 233.776 89.38C232.956 89.02 232.296 88.49 231.796 87.79C231.316 87.09 231.076 86.24 231.076 85.24C231.076 84.22 231.316 83.38 231.796 82.72C232.296 82.04 232.966 81.53 233.806 81.19C234.666 80.85 235.636 80.68 236.716 80.68H241.216V79.72C241.216 78.86 240.956 78.17 240.436 77.65C239.916 77.13 239.116 76.87 238.036 76.87C236.976 76.87 236.166 77.12 235.606 77.62C235.046 78.12 234.676 78.77 234.496 79.57L231.616 78.64C231.856 77.84 232.236 77.12 232.756 76.48C233.296 75.82 234.006 75.29 234.886 74.89C235.766 74.49 236.826 74.29 238.066 74.29C239.986 74.29 241.496 74.78 242.596 75.76C243.696 76.74 244.246 78.13 244.246 79.93V86.02C244.246 86.62 244.526 86.92 245.086 86.92H246.346V89.5H244.036C243.336 89.5 242.766 89.32 242.326 88.96C241.886 88.6 241.666 88.11 241.666 87.49V87.4H241.216C241.056 87.7 240.816 88.05 240.496 88.45C240.176 88.85 239.706 89.2 239.086 89.5C238.466 89.78 237.646 89.92 236.626 89.92ZM237.076 87.37C238.316 87.37 239.316 87.02 240.076 86.32C240.836 85.6 241.216 84.62 241.216 83.38V83.08H236.896C236.076 83.08 235.416 83.26 234.916 83.62C234.416 83.96 234.166 84.47 234.166 85.15C234.166 85.83 234.426 86.37 234.946 86.77C235.466 87.17 236.176 87.37 237.076 87.37ZM249.35 89.5V74.71H252.38V76.45H252.86C253.1 75.83 253.48 75.38 254 75.1C254.54 74.8 255.2 74.65 255.98 74.65H257.75V77.44H255.86C254.86 77.44 254.04 77.72 253.4 78.28C252.76 78.82 252.44 79.66 252.44 80.8V89.5H249.35ZM267.295 89.92C265.875 89.92 264.585 89.62 263.425 89.02C262.285 88.42 261.375 87.55 260.695 86.41C260.035 85.27 259.705 83.9 259.705 82.3V81.91C259.705 80.31 260.035 78.95 260.695 77.83C261.375 76.69 262.285 75.82 263.425 75.22C264.585 74.6 265.875 74.29 267.295 74.29C268.715 74.29 269.925 74.55 270.925 75.07C271.925 75.59 272.725 76.28 273.325 77.14C273.945 78 274.345 78.95 274.525 79.99L271.525 80.62C271.425 79.96 271.215 79.36 270.895 78.82C270.575 78.28 270.125 77.85 269.545 77.53C268.965 77.21 268.235 77.05 267.355 77.05C266.495 77.05 265.715 77.25 265.015 77.65C264.335 78.03 263.795 78.59 263.395 79.33C262.995 80.05 262.795 80.93 262.795 81.97V82.24C262.795 83.28 262.995 84.17 263.395 84.91C263.795 85.65 264.335 86.21 265.015 86.59C265.715 86.97 266.495 87.16 267.355 87.16C268.655 87.16 269.645 86.83 270.325 86.17C271.005 85.49 271.435 84.63 271.615 83.59L274.615 84.28C274.375 85.3 273.945 86.24 273.325 87.1C272.725 87.96 271.925 88.65 270.925 89.17C269.925 89.67 268.715 89.92 267.295 89.92ZM278.178 89.5V68.5H281.268V76.81H281.748C281.948 76.43 282.228 76.06 282.588 75.7C282.968 75.34 283.458 75.05 284.058 74.83C284.678 74.59 285.458 74.47 286.398 74.47C287.518 74.47 288.508 74.72 289.368 75.22C290.248 75.72 290.938 76.43 291.438 77.35C291.938 78.25 292.188 79.34 292.188 80.62V89.5H289.098V80.86C289.098 79.58 288.778 78.64 288.138 78.04C287.498 77.42 286.618 77.11 285.498 77.11C284.218 77.11 283.188 77.53 282.408 78.37C281.648 79.21 281.268 80.43 281.268 82.03V89.5H278.178ZM308.872 89.92C307.812 89.92 306.862 89.74 306.022 89.38C305.202 89.02 304.542 88.49 304.042 87.79C303.562 87.09 303.322 86.24 303.322 85.24C303.322 84.22 303.562 83.38 304.042 82.72C304.542 82.04 305.212 81.53 306.052 81.19C306.912 80.85 307.882 80.68 308.962 80.68H313.462V79.72C313.462 78.86 313.202 78.17 312.682 77.65C312.162 77.13 311.362 76.87 310.282 76.87C309.222 76.87 308.412 77.12 307.852 77.62C307.292 78.12 306.922 78.77 306.742 79.57L303.862 78.64C304.102 77.84 304.482 77.12 305.002 76.48C305.542 75.82 306.252 75.29 307.132 74.89C308.012 74.49 309.072 74.29 310.312 74.29C312.232 74.29 313.742 74.78 314.842 75.76C315.942 76.74 316.492 78.13 316.492 79.93V86.02C316.492 86.62 316.772 86.92 317.332 86.92H318.592V89.5H316.282C315.582 89.5 315.012 89.32 314.572 88.96C314.132 88.6 313.912 88.11 313.912 87.49V87.4H313.462C313.302 87.7 313.062 88.05 312.742 88.45C312.422 88.85 311.952 89.2 311.332 89.5C310.712 89.78 309.892 89.92 308.872 89.92ZM309.322 87.37C310.562 87.37 311.562 87.02 312.322 86.32C313.082 85.6 313.462 84.62 313.462 83.38V83.08H309.142C308.322 83.08 307.662 83.26 307.162 83.62C306.662 83.96 306.412 84.47 306.412 85.15C306.412 85.83 306.672 86.37 307.192 86.77C307.712 87.17 308.422 87.37 309.322 87.37ZM321.596 89.5V74.71H324.626V76.93H325.106C325.386 76.33 325.886 75.77 326.606 75.25C327.326 74.73 328.396 74.47 329.816 74.47C330.936 74.47 331.926 74.72 332.786 75.22C333.666 75.72 334.356 76.43 334.856 77.35C335.356 78.25 335.606 79.34 335.606 80.62V89.5H332.516V80.86C332.516 79.58 332.196 78.64 331.556 78.04C330.916 77.42 330.036 77.11 328.916 77.11C327.636 77.11 326.606 77.53 325.826 78.37C325.066 79.21 324.686 80.43 324.686 82.03V89.5H321.596ZM346.173 89.92C344.953 89.92 343.823 89.62 342.783 89.02C341.743 88.42 340.903 87.56 340.263 86.44C339.643 85.3 339.333 83.93 339.333 82.33V81.88C339.333 80.3 339.643 78.94 340.263 77.8C340.883 76.66 341.713 75.79 342.753 75.19C343.793 74.59 344.933 74.29 346.173 74.29C347.133 74.29 347.933 74.41 348.573 74.65C349.233 74.89 349.773 75.2 350.193 75.58C350.613 75.94 350.933 76.32 351.153 76.72H351.633V68.5H354.723V89.5H351.693V87.4H351.213C350.833 88.04 350.253 88.62 349.473 89.14C348.713 89.66 347.613 89.92 346.173 89.92ZM347.043 87.22C348.383 87.22 349.483 86.79 350.343 85.93C351.223 85.07 351.663 83.84 351.663 82.24V81.97C351.663 80.39 351.233 79.17 350.373 78.31C349.513 77.45 348.403 77.02 347.043 77.02C345.723 77.02 344.623 77.45 343.743 78.31C342.883 79.17 342.453 80.39 342.453 81.97V82.24C342.453 83.84 342.883 85.07 343.743 85.93C344.623 86.79 345.723 87.22 347.043 87.22ZM373.969 89.92C372.389 89.92 370.989 89.64 369.769 89.08C368.549 88.52 367.589 87.7 366.889 86.62C366.209 85.52 365.869 84.19 365.869 82.63V81.88H369.079V82.63C369.079 84.11 369.519 85.22 370.399 85.96C371.299 86.7 372.489 87.07 373.969 87.07C375.469 87.07 376.599 86.76 377.359 86.14C378.119 85.5 378.499 84.68 378.499 83.68C378.499 83.02 378.319 82.48 377.959 82.06C377.599 81.64 377.089 81.31 376.429 81.07C375.769 80.81 374.979 80.57 374.059 80.35L372.949 80.08C371.609 79.76 370.439 79.37 369.439 78.91C368.459 78.43 367.699 77.8 367.159 77.02C366.619 76.24 366.349 75.24 366.349 74.02C366.349 72.78 366.649 71.72 367.249 70.84C367.869 69.96 368.719 69.28 369.799 68.8C370.879 68.32 372.149 68.08 373.609 68.08C375.069 68.08 376.369 68.33 377.509 68.83C378.669 69.33 379.579 70.07 380.239 71.05C380.899 72.03 381.229 73.26 381.229 74.74V75.82H378.019V74.74C378.019 73.84 377.829 73.11 377.449 72.55C377.089 71.99 376.579 71.58 375.919 71.32C375.259 71.06 374.489 70.93 373.609 70.93C372.329 70.93 371.329 71.2 370.609 71.74C369.909 72.26 369.559 72.99 369.559 73.93C369.559 74.57 369.709 75.1 370.009 75.52C370.329 75.92 370.789 76.25 371.389 76.51C371.989 76.77 372.739 77 373.639 77.2L374.749 77.47C376.109 77.77 377.309 78.16 378.349 78.64C379.389 79.1 380.209 79.73 380.809 80.53C381.409 81.33 381.709 82.36 381.709 83.62C381.709 84.88 381.389 85.98 380.749 86.92C380.129 87.86 379.239 88.6 378.079 89.14C376.919 89.66 375.549 89.92 373.969 89.92ZM390.75 89.5C389.85 89.5 389.13 89.23 388.59 88.69C388.07 88.15 387.81 87.43 387.81 86.53V77.32H383.73V74.71H387.81V69.82H390.9V74.71H395.31V77.32H390.9V85.99C390.9 86.59 391.18 86.89 391.74 86.89H394.83V89.5H390.75ZM398.94 89.5V74.71H401.97V76.45H402.45C402.69 75.83 403.07 75.38 403.59 75.1C404.13 74.8 404.79 74.65 405.57 74.65H407.34V77.44H405.45C404.45 77.44 403.63 77.72 402.99 78.28C402.35 78.82 402.03 79.66 402.03 80.8V89.5H398.94ZM414.722 89.92C413.662 89.92 412.712 89.74 411.872 89.38C411.052 89.02 410.392 88.49 409.892 87.79C409.412 87.09 409.172 86.24 409.172 85.24C409.172 84.22 409.412 83.38 409.892 82.72C410.392 82.04 411.062 81.53 411.902 81.19C412.762 80.85 413.732 80.68 414.812 80.68H419.312V79.72C419.312 78.86 419.052 78.17 418.532 77.65C418.012 77.13 417.212 76.87 416.132 76.87C415.072 76.87 414.262 77.12 413.702 77.62C413.142 78.12 412.772 78.77 412.592 79.57L409.712 78.64C409.952 77.84 410.332 77.12 410.852 76.48C411.392 75.82 412.102 75.29 412.982 74.89C413.862 74.49 414.922 74.29 416.162 74.29C418.082 74.29 419.592 74.78 420.692 75.76C421.792 76.74 422.342 78.13 422.342 79.93V86.02C422.342 86.62 422.622 86.92 423.182 86.92H424.442V89.5H422.132C421.432 89.5 420.862 89.32 420.422 88.96C419.982 88.6 419.762 88.11 419.762 87.49V87.4H419.312C419.152 87.7 418.912 88.05 418.592 88.45C418.272 88.85 417.802 89.2 417.182 89.5C416.562 89.78 415.742 89.92 414.722 89.92ZM415.172 87.37C416.412 87.37 417.412 87.02 418.172 86.32C418.932 85.6 419.312 84.62 419.312 83.38V83.08H414.992C414.172 83.08 413.512 83.26 413.012 83.62C412.512 83.96 412.262 84.47 412.262 85.15C412.262 85.83 412.522 86.37 413.042 86.77C413.562 87.17 414.272 87.37 415.172 87.37ZM431.971 89.5C431.071 89.5 430.351 89.23 429.811 88.69C429.291 88.15 429.031 87.43 429.031 86.53V77.32H424.951V74.71H429.031V69.82H432.121V74.71H436.531V77.32H432.121V85.99C432.121 86.59 432.401 86.89 432.961 86.89H436.051V89.5H431.971ZM446.414 89.92C444.914 89.92 443.604 89.61 442.484 88.99C441.364 88.35 440.484 87.46 439.844 86.32C439.224 85.16 438.914 83.82 438.914 82.3V81.94C438.914 80.4 439.224 79.06 439.844 77.92C440.464 76.76 441.324 75.87 442.424 75.25C443.544 74.61 444.834 74.29 446.294 74.29C447.714 74.29 448.954 74.61 450.014 75.25C451.094 75.87 451.934 76.74 452.534 77.86C453.134 78.98 453.434 80.29 453.434 81.79V82.96H442.064C442.104 84.26 442.534 85.3 443.354 86.08C444.194 86.84 445.234 87.22 446.474 87.22C447.634 87.22 448.504 86.96 449.084 86.44C449.684 85.92 450.144 85.32 450.464 84.64L453.014 85.96C452.734 86.52 452.324 87.11 451.784 87.73C451.264 88.35 450.574 88.87 449.714 89.29C448.854 89.71 447.754 89.92 446.414 89.92ZM442.094 80.59H450.284C450.204 79.47 449.804 78.6 449.084 77.98C448.364 77.34 447.424 77.02 446.264 77.02C445.104 77.02 444.154 77.34 443.414 77.98C442.694 78.6 442.254 79.47 442.094 80.59ZM456.433 82.18V81.73C456.433 80.17 456.743 78.84 457.363 77.74C458.003 76.64 458.843 75.79 459.883 75.19C460.923 74.59 462.063 74.29 463.303 74.29C464.743 74.29 465.843 74.56 466.603 75.1C467.383 75.64 467.953 76.22 468.313 76.84H468.793V74.71H471.793V92.53C471.793 93.43 471.523 94.15 470.983 94.69C470.463 95.23 469.743 95.5 468.823 95.5H458.863V92.8H467.863C468.443 92.8 468.733 92.5 468.733 91.9V87.19H468.253C468.033 87.55 467.723 87.92 467.323 88.3C466.923 88.68 466.393 88.99 465.733 89.23C465.093 89.47 464.283 89.59 463.303 89.59C462.063 89.59 460.913 89.3 459.853 88.72C458.813 88.12 457.983 87.27 457.363 86.17C456.743 85.05 456.433 83.72 456.433 82.18ZM464.143 86.89C465.483 86.89 466.583 86.47 467.443 85.63C468.323 84.77 468.763 83.59 468.763 82.09V81.82C468.763 80.28 468.333 79.1 467.473 78.28C466.613 77.44 465.503 77.02 464.143 77.02C462.823 77.02 461.723 77.44 460.843 78.28C459.983 79.1 459.553 80.28 459.553 81.82V82.09C459.553 83.59 459.983 84.77 460.843 85.63C461.723 86.47 462.823 86.89 464.143 86.89ZM478.053 95.5V92.8H486.303C486.863 92.8 487.143 92.5 487.143 91.9V87.34H486.663C486.483 87.74 486.203 88.13 485.823 88.51C485.463 88.87 484.973 89.17 484.353 89.41C483.733 89.65 482.953 89.77 482.013 89.77C480.893 89.77 479.893 89.52 479.013 89.02C478.133 88.52 477.443 87.81 476.943 86.89C476.443 85.97 476.193 84.88 476.193 83.62V74.71H479.283V83.38C479.283 84.66 479.603 85.61 480.243 86.23C480.883 86.83 481.773 87.13 482.913 87.13C484.173 87.13 485.183 86.71 485.943 85.87C486.723 85.03 487.113 83.81 487.113 82.21V74.71H490.203V92.53C490.203 93.43 489.933 94.15 489.393 94.69C488.873 95.23 488.153 95.5 487.233 95.5H478.053ZM501.547 89.5V86.62H504.367V71.38H501.547V68.5H509.947C512.747 68.5 514.887 69.21 516.367 70.63C517.867 72.05 518.617 74.19 518.617 77.05V80.98C518.617 83.84 517.867 85.98 516.367 87.4C514.887 88.8 512.747 89.5 509.947 89.5H501.547ZM507.637 86.56H509.977C511.797 86.56 513.147 86.1 514.027 85.18C514.907 84.26 515.347 82.89 515.347 81.07V76.93C515.347 75.09 514.907 73.72 514.027 72.82C513.147 71.92 511.797 71.47 509.977 71.47H507.637V86.56ZM529.148 89.92C527.648 89.92 526.338 89.61 525.218 88.99C524.098 88.35 523.218 87.46 522.578 86.32C521.958 85.16 521.648 83.82 521.648 82.3V81.94C521.648 80.4 521.958 79.06 522.578 77.92C523.198 76.76 524.058 75.87 525.158 75.25C526.278 74.61 527.568 74.29 529.028 74.29C530.448 74.29 531.688 74.61 532.748 75.25C533.828 75.87 534.668 76.74 535.268 77.86C535.868 78.98 536.168 80.29 536.168 81.79V82.96H524.798C524.838 84.26 525.268 85.3 526.088 86.08C526.928 86.84 527.968 87.22 529.208 87.22C530.368 87.22 531.238 86.96 531.818 86.44C532.418 85.92 532.878 85.32 533.198 84.64L535.748 85.96C535.468 86.52 535.058 87.11 534.518 87.73C533.998 88.35 533.308 88.87 532.448 89.29C531.588 89.71 530.488 89.92 529.148 89.92ZM524.828 80.59H533.018C532.938 79.47 532.538 78.6 531.818 77.98C531.098 77.34 530.158 77.02 528.998 77.02C527.838 77.02 526.888 77.34 526.148 77.98C525.428 78.6 524.988 79.47 524.828 80.59ZM542.809 89.5L537.829 74.71H541.099L545.029 87.22H545.509L549.439 74.71H552.709L547.729 89.5H542.809ZM561.99 89.92C560.49 89.92 559.18 89.61 558.06 88.99C556.94 88.35 556.06 87.46 555.42 86.32C554.8 85.16 554.49 83.82 554.49 82.3V81.94C554.49 80.4 554.8 79.06 555.42 77.92C556.04 76.76 556.9 75.87 558 75.25C559.12 74.61 560.41 74.29 561.87 74.29C563.29 74.29 564.53 74.61 565.59 75.25C566.67 75.87 567.51 76.74 568.11 77.86C568.71 78.98 569.01 80.29 569.01 81.79V82.96H557.64C557.68 84.26 558.11 85.3 558.93 86.08C559.77 86.84 560.81 87.22 562.05 87.22C563.21 87.22 564.08 86.96 564.66 86.44C565.26 85.92 565.72 85.32 566.04 84.64L568.59 85.96C568.31 86.52 567.9 87.11 567.36 87.73C566.84 88.35 566.15 88.87 565.29 89.29C564.43 89.71 563.33 89.92 561.99 89.92ZM557.67 80.59H565.86C565.78 79.47 565.38 78.6 564.66 77.98C563.94 77.34 563 77.02 561.84 77.02C560.68 77.02 559.73 77.34 558.99 77.98C558.27 78.6 557.83 79.47 557.67 80.59ZM572.729 89.5V68.5H575.819V89.5H572.729ZM587.335 89.92C585.855 89.92 584.535 89.62 583.375 89.02C582.235 88.4 581.335 87.52 580.675 86.38C580.015 85.24 579.685 83.89 579.685 82.33V81.88C579.685 80.32 580.015 78.98 580.675 77.86C581.335 76.72 582.235 75.84 583.375 75.22C584.535 74.6 585.855 74.29 587.335 74.29C588.815 74.29 590.135 74.6 591.295 75.22C592.455 75.84 593.365 76.72 594.025 77.86C594.685 78.98 595.015 80.32 595.015 81.88V82.33C595.015 83.89 594.685 85.24 594.025 86.38C593.365 87.52 592.455 88.4 591.295 89.02C590.135 89.62 588.815 89.92 587.335 89.92ZM587.335 87.16C588.695 87.16 589.795 86.73 590.635 85.87C591.495 84.99 591.925 83.78 591.925 82.24V81.97C591.925 80.43 591.505 79.23 590.665 78.37C589.825 77.49 588.715 77.05 587.335 77.05C585.995 77.05 584.895 77.49 584.035 78.37C583.195 79.23 582.775 80.43 582.775 81.97V82.24C582.775 83.78 583.195 84.99 584.035 85.87C584.895 86.73 585.995 87.16 587.335 87.16ZM598.862 95.5V74.71H601.892V76.84H602.372C602.752 76.18 603.322 75.59 604.082 75.07C604.862 74.55 605.972 74.29 607.412 74.29C608.652 74.29 609.782 74.59 610.802 75.19C611.842 75.79 612.672 76.66 613.292 77.8C613.932 78.92 614.252 80.28 614.252 81.88V82.33C614.252 83.93 613.942 85.3 613.322 86.44C612.702 87.56 611.872 88.42 610.832 89.02C609.792 89.62 608.652 89.92 607.412 89.92C606.452 89.92 605.642 89.8 604.982 89.56C604.322 89.32 603.792 89.02 603.392 88.66C602.992 88.28 602.672 87.89 602.432 87.49H601.952V95.5H598.862ZM606.512 87.22C607.872 87.22 608.982 86.79 609.842 85.93C610.702 85.07 611.132 83.84 611.132 82.24V81.97C611.132 80.39 610.692 79.17 609.812 78.31C608.952 77.45 607.852 77.02 606.512 77.02C605.192 77.02 604.092 77.45 603.212 78.31C602.352 79.17 601.922 80.39 601.922 81.97V82.24C601.922 83.84 602.352 85.07 603.212 85.93C604.092 86.79 605.192 87.22 606.512 87.22ZM618.081 89.5V74.71H621.111V76.45H621.591C621.871 75.93 622.321 75.47 622.941 75.07C623.561 74.67 624.401 74.47 625.461 74.47C626.561 74.47 627.441 74.7 628.101 75.16C628.781 75.6 629.291 76.17 629.631 76.87H630.111C630.451 76.19 630.941 75.62 631.581 75.16C632.241 74.7 633.171 74.47 634.371 74.47C635.331 74.47 636.181 74.67 636.921 75.07C637.661 75.45 638.251 76.03 638.691 76.81C639.131 77.57 639.351 78.52 639.351 79.66V89.5H636.261V79.9C636.261 79 636.011 78.31 635.511 77.83C635.031 77.33 634.341 77.08 633.441 77.08C632.481 77.08 631.711 77.39 631.131 78.01C630.551 78.63 630.261 79.52 630.261 80.68V89.5H627.171V79.9C627.171 79 626.921 78.31 626.421 77.83C625.941 77.33 625.251 77.08 624.351 77.08C623.391 77.08 622.621 77.39 622.041 78.01C621.461 78.63 621.171 79.52 621.171 80.68V89.5H618.081ZM650.583 89.92C649.083 89.92 647.773 89.61 646.653 88.99C645.533 88.35 644.653 87.46 644.013 86.32C643.393 85.16 643.083 83.82 643.083 82.3V81.94C643.083 80.4 643.393 79.06 644.013 77.92C644.633 76.76 645.493 75.87 646.593 75.25C647.713 74.61 649.003 74.29 650.463 74.29C651.883 74.29 653.123 74.61 654.183 75.25C655.263 75.87 656.103 76.74 656.703 77.86C657.303 78.98 657.603 80.29 657.603 81.79V82.96H646.233C646.273 84.26 646.703 85.3 647.523 86.08C648.363 86.84 649.403 87.22 650.643 87.22C651.803 87.22 652.673 86.96 653.253 86.44C653.853 85.92 654.313 85.32 654.633 84.64L657.183 85.96C656.903 86.52 656.493 87.11 655.953 87.73C655.433 88.35 654.743 88.87 653.883 89.29C653.023 89.71 651.923 89.92 650.583 89.92ZM646.263 80.59H654.453C654.373 79.47 653.973 78.6 653.253 77.98C652.533 77.34 651.593 77.02 650.433 77.02C649.273 77.02 648.323 77.34 647.583 77.98C646.863 78.6 646.423 79.47 646.263 80.59ZM661.323 89.5V74.71H664.353V76.93H664.833C665.113 76.33 665.613 75.77 666.333 75.25C667.053 74.73 668.123 74.47 669.543 74.47C670.663 74.47 671.653 74.72 672.513 75.22C673.393 75.72 674.083 76.43 674.583 77.35C675.083 78.25 675.333 79.34 675.333 80.62V89.5H672.243V80.86C672.243 79.58 671.923 78.64 671.283 78.04C670.643 77.42 669.763 77.11 668.643 77.11C667.363 77.11 666.333 77.53 665.553 78.37C664.793 79.21 664.413 80.43 664.413 82.03V89.5H661.323ZM684.92 89.5C684.02 89.5 683.3 89.23 682.76 88.69C682.24 88.15 681.98 87.43 681.98 86.53V77.32H677.9V74.71H681.98V69.82H685.07V74.71H689.48V77.32H685.07V85.99C685.07 86.59 685.35 86.89 685.91 86.89H689V89.5H684.92Z" fill="black"/>
<circle cx="1148" cy="79.5" r="28.5" fill="#F3F3F3" stroke="#191A23"/>
<path d="M1144.6 91.58V81.86H1135V76.22H1144.6V66.5H1150.48V76.22H1160.08V81.86H1150.48V91.58H1144.6Z" fill="#191A23"/>
</g>
</g>
<defs>
<filter id="filter0_d_338_204" x="0" y="0" width="1234" height="164" filterUnits="userSpaceOnUse" color-interpolation-filters="sRGB">
<feFlood flood-opacity="0" result="BackgroundImageFix"/>
<feColorMatrix in="SourceAlpha" type="matrix" values="0 0 0 0 0 0 0 0 0 0 0 0 0 0 0 0 0 0 127 0" result="hardAlpha"/>
<feOffset dy="5"/>
<feComposite in2="hardAlpha" operator="out"/>
<feColorMatrix type="matrix" values="0 0 0 0 0.0980392 0 0 0 0 0.101961 0 0 0 0 0.137255 0 0 0 1 0"/>
<feBlend mode="normal" in2="BackgroundImageFix" result="effect1_dropShadow_338_204"/>
<feBlend mode="normal" in="SourceGraphic" in2="effect1_dropShadow_338_204" result="shape"/>
</filter>
<clipPath id="clip0_338_204">
<rect width="1117" height="77" fill="white" transform="translate(60 41)"/>
</clipPath>
</defs>
</svg>
